<svg width="141" height="31" viewBox="0 0 141 31" fill="none" xmlns="http://www.w3.org/2000/svg">
<path d="M0 30H140V29H0V30Z" fill="white"/>
<path fill-rule="evenodd" clip-rule="evenodd" d="M30 30H0V0H30V30ZM23.7569 22.0121C23.6983 21.8559 23.63 21.729 23.5519 21.6314L18.2514 15.6281C18.0757 15.3938 18.0757 15.1693 18.2514 14.9546L23.5519 8.95125C23.63 8.85364 23.6983 8.7365 23.7569 8.59984C23.8154 8.44366 23.8447 8.307 23.8447 8.18986V4.55859H19.7156V6.63779C19.7156 6.75492 19.6863 6.89158 19.6278 7.04777C19.5887 7.18443 19.5301 7.30157 19.4521 7.39918L15.5279 11.8504C15.4303 11.948 15.323 11.9968 15.2058 11.9968C15.1082 11.9968 15.0204 11.948 14.9423 11.8504L11.0181 7.39918C10.9401 7.30157 10.8717 7.18443 10.8132 7.04777C10.7546 6.89158 10.7253 6.75492 10.7253 6.63779V4.55859H6.62549V8.18986C6.62549 8.307 6.64501 8.44366 6.68406 8.59984C6.74263 8.7365 6.82072 8.85364 6.91833 8.95125L12.2188 14.9546C12.3945 15.1693 12.3945 15.3938 12.2188 15.6281L6.91833 21.6314C6.82072 21.729 6.74263 21.8559 6.68406 22.0121C6.64501 22.1488 6.62549 22.2757 6.62549 22.3928V25.9655H10.7253V23.9449C10.7253 23.8277 10.7546 23.7008 10.8132 23.5642C10.8717 23.408 10.9401 23.2811 11.0181 23.1835L14.9423 18.7322C15.0204 18.6346 15.1082 18.5858 15.2058 18.5858C15.323 18.5858 15.4303 18.6346 15.5279 18.7322L19.4521 23.1835C19.5301 23.2811 19.5887 23.408 19.6278 23.5642C19.6863 23.7008 19.7156 23.8277 19.7156 23.9449V25.9655H23.8447V22.3928C23.8447 22.2757 23.8154 22.1488 23.7569 22.0121Z" fill="white"/>
<path d="M38.5574 21.3606V9.41635H35.5713V24.3467H44.5295V21.3606H38.5574ZM59.4598 9.41635H47.5156V24.3467H59.4598V9.41635ZM56.4737 21.3606H50.5016V12.4024H56.4737V21.3606ZM62.4459 9.41635V24.3467H65.4319V12.4024H68.418V24.3467H71.4041V12.4024H74.3901V24.3467H77.3762V9.41635H62.4459ZM80.3623 9.41635V24.3467H92.3065V18.3745H89.3205V15.3885H92.3065V9.41635H80.3623ZM89.201 12.4024V15.3885H83.3483V12.4024H89.201ZM89.201 18.3745V21.3606H83.3483V18.3745H89.201ZM95.2926 9.41635V24.3467H98.2787V18.3745H104.251V24.3467H107.237V9.41635H95.2926ZM104.251 15.3885H98.2787V12.4024H104.251V15.3885ZM122.167 24.3467V18.3745H119.181V15.3885H122.167V9.41635H110.223V24.3467H113.209V18.3745H119.181V24.3467H122.167ZM119.062 15.3885H113.209V12.4024H119.062V15.3885ZM134.111 12.4024V9.41635H125.153V24.3467H134.111V21.3606H137.098V12.4024H134.111ZM133.992 12.4024V21.3606H128.139V12.4024H133.992Z" fill="white"/>
</svg>
