<svg width="200" height="50" viewBox="0 0 200 50" fill="none" xmlns="http://www.w3.org/2000/svg">
<rect width="200" height="50" fill="#4CADFB"/>
<path d="M15 40H155V39H15V40Z" fill="white"/>
<path d="M15 40H45V10H15V40Z" fill="white"/>
<path d="M38.5521 31.6315C38.6302 31.7291 38.6985 31.856 38.7571 32.0122C38.8157 32.1488 38.8449 32.2757 38.8449 32.3929V35.9656H34.7158V33.945C34.7158 33.8278 34.6866 33.7009 34.628 33.5643C34.5889 33.4081 34.5304 33.2812 34.4523 33.1836L30.5282 28.7323C30.4306 28.6347 30.3232 28.5859 30.206 28.5859C30.1084 28.5859 30.0206 28.6347 29.9425 28.7323L26.0184 33.1836C25.9403 33.2812 25.872 33.4081 25.8134 33.5643C25.7548 33.7009 25.7255 33.8278 25.7255 33.945V35.9656H21.6257V32.3929C21.6257 32.2757 21.6452 32.1488 21.6843 32.0122C21.7429 31.856 21.8209 31.7291 21.9186 31.6315L27.219 25.6282C27.3947 25.3939 27.3947 25.1694 27.219 24.9546L21.9186 18.9513C21.8209 18.8537 21.7429 18.7366 21.6843 18.5999C21.6452 18.4437 21.6257 18.3071 21.6257 18.1899V14.5587H25.7255V16.6379C25.7255 16.755 25.7548 16.8917 25.8134 17.0479C25.872 17.1845 25.9403 17.3016 26.0184 17.3993L29.9425 21.8505C30.0206 21.9481 30.1084 21.9969 30.206 21.9969C30.3232 21.9969 30.4306 21.9481 30.5282 21.8505L34.4523 17.3993C34.5304 17.3016 34.5889 17.1845 34.628 17.0479C34.6866 16.8917 34.7158 16.755 34.7158 16.6379V14.5587H38.8449V18.1899C38.8449 18.3071 38.8157 18.4437 38.7571 18.5999C38.6985 18.7366 38.6302 18.8537 38.5521 18.9513L33.2516 24.9546C33.0759 25.1694 33.0759 25.3939 33.2516 25.6282L38.5521 31.6315Z" fill="#4CADFB"/>
<path d="M53.5574 31.3604V19.4161H50.5713V34.3464H59.5295V31.3604H53.5574ZM74.4598 19.4161H62.5156V34.3464H74.4598V19.4161ZM71.4737 31.3604H65.5016V22.4022H71.4737V31.3604ZM77.4459 19.4161V34.3464H80.4319V22.4022H83.418V34.3464H86.4041V22.4022H89.3901V34.3464H92.3762V19.4161H77.4459ZM95.3623 19.4161V34.3464H107.307V28.3743H104.32V25.3882H107.307V19.4161H95.3623ZM104.201 22.4022V25.3882H98.3483V22.4022H104.201ZM104.201 28.3743V31.3604H98.3483V28.3743H104.201ZM110.293 19.4161V34.3464H113.279V28.3743H119.251V34.3464H122.237V19.4161H110.293ZM119.251 25.3882H113.279V22.4022H119.251V25.3882ZM137.167 34.3464V28.3743H134.181V25.3882H137.167V19.4161H125.223V34.3464H128.209V28.3743H134.181V34.3464H137.167ZM134.062 25.3882H128.209V22.4022H134.062V25.3882ZM149.111 22.4022V19.4161H140.153V34.3464H149.111V31.3604H152.098V22.4022H149.111ZM148.992 22.4022V31.3604H143.139V22.4022H148.992Z" fill="white"/>
</svg>
