<svg width="122" height="113" viewBox="0 0 122 113" fill="none" xmlns="http://www.w3.org/2000/svg"><rect x="60.602" y="12.922" width="54.197" height="54.197" rx="7.131" transform="rotate(45 60.602 12.922)" fill="#F9EACD"/><g filter="url(#a)"><rect x="46.732" y="15.516" width="54.197" height="54.197" rx="7.131" transform="rotate(23.78 46.732 15.516)" fill="#FBA600"/></g><path d="M75 48.5a1 1 0 0 0 1-1v-8a1 1 0 0 0-1-1h-3v-1a1 1 0 1 0-2 0v1H52v-1a1 1 0 1 0-2 0v1h-3a1 1 0 0 0-1 1v8a1 1 0 0 0 1 1h3v2h-3a1 1 0 0 0-1 1v8a1 1 0 0 0 1 1h3v4h-1a1 1 0 1 0 0 2h4a1 1 0 1 0 0-2h-1v-4h18v4h-1a1 1 0 1 0 0 2h4a1 1 0 1 0 0-2h-1v-4h3a1 1 0 0 0 1-1v-8a1 1 0 0 0-1-1h-3v-2h3Zm-3.836-2L74 43.664V46.5h-2.836ZM74 40.836 68.336 46.5h-3.172l5.793-5.793c.06-.06.096-.136.137-.207h2.905v.336H74ZM59.164 46.5l5.793-5.793c.06-.06.096-.136.137-.207h3.241l-6 6h-3.172Zm-6 0 6-6h3.172l-6 6h-3.172Zm-2.828-6L48 42.836V40.5h2.336ZM48 46.5v-.862c.026-.022.058-.03.083-.055l5.082-5.083h3.173l-5.793 5.793c-.061.06-.096.136-.137.207H48Zm2.336 6L48 54.836V52.5h2.336ZM48 57.638c.026-.022.058-.03.083-.055l5.082-5.083h3.173l-5.793 5.793c-.061.06-.096.136-.137.207h-2.405v-.862H48ZM62.337 52.5l-6 6h-3.173l6-6h3.172Zm-3.173 6 5.793-5.793c.06-.06.096-.136.137-.207h3.241l-6 6h-3.172.001Zm12 0L74 55.664V58.5h-2.836ZM74 52.836 68.337 58.5h-3.173l5.793-5.793c.061-.06.096-.136.137-.207H74v.336H74ZM70 50.5H52v-2h18v2Z" fill="#fff"/><circle cx="103.784" cy="30.388" r="1.783" fill="#FB8700"/><circle cx="34.759" cy="90.291" r="3.209" fill="#FB7800"/><path fill="#F0DEBB" d="m22.197 6.5 4.198 4.198-4.198 4.198L18 10.698z"/><defs><filter id="a" x=".048" y=".67" width="121.111" height="121.112" filterUnits="userSpaceOnUse" color-interpolation-filters="sRGB"><feFlood flood-opacity="0" result="BackgroundImageFix"/><feColorMatrix in="SourceAlpha" values="0 0 0 0 0 0 0 0 0 0 0 0 0 0 0 0 0 0 127 0" result="hardAlpha"/><feMorphology radius="4.279" in="SourceAlpha" result="effect1_dropShadow_3394_283268"/><feOffset dy="9.984"/><feGaussianBlur stdDeviation="15.689"/><feComposite in2="hardAlpha" operator="out"/><feColorMatrix values="0 0 0 0 0.858333 0 0 0 0 0.527569 0 0 0 0 0.222247 0 0 0 0.4 0"/><feBlend in2="BackgroundImageFix" result="effect1_dropShadow_3394_283268"/><feBlend in="SourceGraphic" in2="effect1_dropShadow_3394_283268" result="shape"/></filter></defs></svg>