<svg width="94" height="95" viewBox="0 0 94 95" fill="none" xmlns="http://www.w3.org/2000/svg">
    <rect x="47" y="9.5" width="53.74" height="53.74" rx="7.071" transform="rotate(45 47 9.5)" fill="#E3EBF1"/>
    <rect x="33.246" y="12.074" width="53.74" height="53.74" rx="7.071" transform="rotate(23.78 33.246 12.074)"
          fill="#fff"/>
    <path d="M61 44.5a1 1 0 0 0 1-1v-8a1 1 0 0 0-1-1h-3v-1a1 1 0 1 0-2 0v1H38v-1a1 1 0 1 0-2 0v1h-3a1 1 0 0 0-1 1v8a1 1 0 0 0 1 1h3v2h-3a1 1 0 0 0-1 1v8a1 1 0 0 0 1 1h3v4h-1a1 1 0 1 0 0 2h4a1 1 0 1 0 0-2h-1v-4h18v4h-1a1 1 0 1 0 0 2h4a1 1 0 1 0 0-2h-1v-4h3a1 1 0 0 0 1-1v-8a1 1 0 0 0-1-1h-3v-2h3Zm-3.836-2L60 39.664V42.5h-2.836ZM60 36.836 54.336 42.5h-3.172l5.792-5.793c.062-.06.097-.136.138-.207h2.905v.336H60ZM45.164 42.5l5.793-5.793c.06-.06.096-.136.137-.207h3.241l-6 6h-3.172Zm-6 0 6-6h3.172l-6 6h-3.172Zm-2.828-6L34 38.836V36.5h2.336ZM34 42.5v-.862c.026-.022.058-.03.083-.055l5.082-5.083h3.173l-5.793 5.793c-.061.06-.096.136-.137.207H34Zm2.336 6L34 50.836V48.5h2.336ZM34 53.638c.026-.022.058-.03.083-.055l5.082-5.083h3.173l-5.793 5.793c-.061.06-.096.136-.137.207h-2.405v-.862H34ZM48.337 48.5l-6 6h-3.173l6-6h3.172Zm-3.173 6 5.793-5.793c.06-.06.096-.136.137-.207h3.241l-6 6h-3.172.001Zm12 0L60 51.664V54.5h-2.836ZM60 48.836 54.337 54.5h-3.173l5.793-5.793c.061-.06.096-.136.137-.207H60v.336H60ZM56 46.5H38v-2h18v2Z"
          fill="#CED3DF"/>
    <circle cx="14" cy="76.5" r="3" fill="#D5DDE3"/>
    <path fill="#D5DDE3" d="m17.581 14.5 2.732 2.731-2.732 2.732-2.732-2.732z"/>
    <circle cx="82" cy="60.5" r="2" fill="#D5DDE3"/>
</svg>