<svg width="24" height="24" viewBox="0 0 24 24" fill="none" xmlns="http://www.w3.org/2000/svg">
<path fill-rule="evenodd" clip-rule="evenodd" d="M13.2929 16.7071C12.9024 16.3166 12.9024 15.6834 13.2929 15.2929L16.5858 12L13.2929 8.70711C12.9024 8.31658 12.9024 7.68342 13.2929 7.29289C13.6834 6.90237 14.3166 6.90237 14.7071 7.29289L18.7071 11.2929C19.0976 11.6834 19.0976 12.3166 18.7071 12.7071L14.7071 16.7071C14.3166 17.0976 13.6834 17.0976 13.2929 16.7071Z" fill="currentColor"/>
<path fill-rule="evenodd" clip-rule="evenodd" d="M5 12C5 11.4477 5.44772 11 6 11H18C18.5523 11 19 11.4477 19 12C19 12.5523 18.5523 13 18 13H6C5.44772 13 5 12.5523 5 12Z" fill="currentColor"/>
</svg>
