<svg width="24" height="24" viewBox="0 0 24 24" fill="none" xmlns="http://www.w3.org/2000/svg">
<path fill-rule="evenodd" clip-rule="evenodd" d="M10.7071 7.29289C11.0976 7.68342 11.0976 8.31658 10.7071 8.70711L7.41421 12L10.7071 15.2929C11.0976 15.6834 11.0976 16.3166 10.7071 16.7071C10.3166 17.0976 9.68342 17.0976 9.29289 16.7071L5.29289 12.7071C4.90237 12.3166 4.90237 11.6834 5.29289 11.2929L9.29289 7.29289C9.68342 6.90237 10.3166 6.90237 10.7071 7.29289Z" fill="currentColor"/>
<path fill-rule="evenodd" clip-rule="evenodd" d="M19 12C19 12.5523 18.5523 13 18 13H6C5.44771 13 5 12.5523 5 12C5 11.4477 5.44771 11 6 11H18C18.5523 11 19 11.4477 19 12Z" fill="currentColor"/>
</svg>
