<svg width="24" height="24" viewBox="0 0 24 24" fill="none" xmlns="http://www.w3.org/2000/svg">
<path fill-rule="evenodd" clip-rule="evenodd" d="M16.5691 3.03804C16.4429 3.00533 16.2915 3.00004 16 3.00004H9.00004C8.86534 3.00004 8.49028 3.00007 8.11512 3.00854C7.92686 3.01279 7.74647 3.01901 7.60025 3.02778C7.49594 3.03404 7.43704 3.04022 7.41207 3.04284C7.39503 3.04462 7.39378 3.04476 7.40468 3.04212L7.40044 3.04315C7.31362 3.0637 7.23431 3.10818 7.17152 3.17155C7.10872 3.23492 7.06495 3.31462 7.04519 3.40162C7.04295 3.41145 7.04057 3.42125 7.03804 3.431C7.00533 3.55718 7.00004 3.70861 7.00004 4.00004V21H17V4.00004C17 3.71259 16.9954 3.55449 16.9599 3.41258L16.9569 3.40045C16.9363 3.31364 16.8919 3.23431 16.8285 3.17152C16.7652 3.10872 16.6855 3.06495 16.5985 3.04519C16.5886 3.04295 16.5788 3.04057 16.5691 3.03804ZM17.0564 1.09831C16.6657 0.999451 16.2812 0.999798 16.0335 1.00002C16.0221 1.00003 16.0109 1.00004 16 1.00004H8.99898C8.86268 1.00004 8.46876 1.00004 8.06997 1.00905C7.87073 1.01355 7.66237 1.02045 7.48046 1.03137C7.32779 1.04053 7.10728 1.05647 6.9354 1.09796L7.17004 2.07004L6.93965 1.09694C6.48885 1.20368 6.07701 1.43469 5.75092 1.76375C5.42839 2.08921 5.20253 2.49767 5.09831 2.94366C4.99945 3.33442 4.9998 3.71887 5.00002 3.96658C5.00003 3.97803 5.00004 3.98919 5.00004 4.00004V22C5.00004 22.5523 5.44776 23 6.00004 23H18C18.5523 23 19 22.5523 19 22V4.00004C19 3.98992 19.0001 3.97956 19.0001 3.96897C19.0002 3.71651 19.0005 3.33265 18.9017 2.93344C18.7943 2.48507 18.5639 2.07551 18.2363 1.75092C17.9109 1.42839 17.5024 1.20253 17.0564 1.09831Z" fill="currentColor"/>
<path fill-rule="evenodd" clip-rule="evenodd" d="M3.96681 11C3.97826 11 3.98942 11 4.00027 11H6.00027C6.55255 11 7.00027 11.4478 7.00027 12V22C7.00027 22.5523 6.55255 23 6.00027 23H4.00027C2.34799 23 1.00027 21.6523 1.00027 20V14.017C0.98915 13.6673 1.01977 13.3175 1.09151 12.975C1.09474 12.9596 1.09833 12.9443 1.10227 12.9291C1.20866 12.5187 1.41547 12.1006 1.75316 11.7629C2.09758 11.4185 2.51369 11.2098 2.92931 11.102C3.32506 10.9994 3.71602 10.9998 3.96681 11ZM4.00027 13C3.70883 13 3.55741 13.0053 3.43123 13.038C3.30685 13.0703 3.22296 13.1216 3.16738 13.1771C3.12733 13.2172 3.07753 13.2927 3.04382 13.4106C3.00774 13.5927 2.9929 13.7784 2.99962 13.9639C3.00005 13.9759 3.00027 13.988 3.00027 14V20C3.00027 20.5478 3.45255 21 4.00027 21H5.00027V13H4.00027Z" fill="currentColor"/>
<path fill-rule="evenodd" clip-rule="evenodd" d="M19.9831 8.00027C20.3328 7.98915 20.6825 8.01977 21.025 8.09151C21.0404 8.09474 21.0557 8.09833 21.071 8.10227C21.4813 8.20866 21.8994 8.41547 22.2371 8.75316C22.5815 9.09758 22.7902 9.51369 22.898 9.92931C23.0006 10.3249 23.0002 10.7062 23 10.9659C23 10.9776 23 10.9891 23 11.0003V20.0003C23 20.7959 22.6839 21.559 22.1213 22.1216C21.5587 22.6842 20.7957 23.0003 20 23.0003H18C17.4477 23.0003 17 22.5526 17 22.0003V9.00027C17 8.44799 17.4477 8.00027 18 8.00027H19.9831ZM20.5894 10.0438C20.4073 10.0077 20.2217 9.9929 20.0362 9.99962C20.0241 10.0001 20.0121 10.0003 20 10.0003H19V21.0003H20C20.2652 21.0003 20.5196 20.8949 20.7071 20.7074C20.8946 20.5198 21 20.2655 21 20.0003V11.0003C21 10.7 20.9948 10.5578 20.962 10.4312C20.9298 10.3068 20.8785 10.223 20.8229 10.1674C20.7829 10.1273 20.7073 10.0775 20.5894 10.0438Z" fill="currentColor"/>
<path fill-rule="evenodd" clip-rule="evenodd" d="M9 6C9 5.44772 9.44772 5 10 5H14C14.5523 5 15 5.44772 15 6C15 6.55228 14.5523 7 14 7H10C9.44772 7 9 6.55228 9 6Z" fill="currentColor"/>
<path fill-rule="evenodd" clip-rule="evenodd" d="M9 10C9 9.44772 9.44772 9 10 9H14C14.5523 9 15 9.44772 15 10C15 10.5523 14.5523 11 14 11H10C9.44772 11 9 10.5523 9 10Z" fill="currentColor"/>
<path fill-rule="evenodd" clip-rule="evenodd" d="M9 14C9 13.4477 9.44772 13 10 13H14C14.5523 13 15 13.4477 15 14C15 14.5523 14.5523 15 14 15H10C9.44772 15 9 14.5523 9 14Z" fill="currentColor"/>
<path fill-rule="evenodd" clip-rule="evenodd" d="M9 18C9 17.4477 9.44772 17 10 17H14C14.5523 17 15 17.4477 15 18C15 18.5523 14.5523 19 14 19H10C9.44772 19 9 18.5523 9 18Z" fill="currentColor"/>
</svg>
