<svg width="25" height="24" viewBox="0 0 25 24" fill="none" xmlns="http://www.w3.org/2000/svg">
<path fill-rule="evenodd" clip-rule="evenodd" d="M7.33301 8C6.70964 8 6.33301 8.45225 6.33301 8.85714V18.1429C6.33301 18.5477 6.70964 19 7.33301 19H17.333C17.9564 19 18.333 18.5477 18.333 18.1429V8.85714C18.333 8.45225 17.9564 8 17.333 8H7.33301ZM4.33301 8.85714C4.33301 7.21069 5.74724 6 7.33301 6H17.333C18.9188 6 20.333 7.21069 20.333 8.85714V18.1429C20.333 19.7893 18.9188 21 17.333 21H7.33301C5.74724 21 4.33301 19.7893 4.33301 18.1429V8.85714Z" fill="currentColor"/>
<path fill-rule="evenodd" clip-rule="evenodd" d="M15.333 4C15.8853 4 16.333 4.44772 16.333 5V9C16.333 9.55228 15.8853 10 15.333 10C14.7807 10 14.333 9.55228 14.333 9V5C14.333 4.44772 14.7807 4 15.333 4Z" fill="currentColor"/>
<path fill-rule="evenodd" clip-rule="evenodd" d="M9.33301 4C9.88529 4 10.333 4.44772 10.333 5V9C10.333 9.55228 9.88529 10 9.33301 10C8.78072 10 8.33301 9.55228 8.33301 9V5C8.33301 4.44772 8.78072 4 9.33301 4Z" fill="currentColor"/>
<path fill-rule="evenodd" clip-rule="evenodd" d="M4.33301 12C4.33301 11.4477 4.78072 11 5.33301 11H19.333C19.8853 11 20.333 11.4477 20.333 12C20.333 12.5523 19.8853 13 19.333 13H5.33301C4.78072 13 4.33301 12.5523 4.33301 12Z" fill="currentColor"/>
</svg>
