<svg width="167" height="178" viewBox="0 0 167 178" fill="none" xmlns="http://www.w3.org/2000/svg">
<rect x="81.7401" y="17" width="76" height="76" rx="10" transform="rotate(45 81.7401 17)" fill="#E3EBF1"/>
<g filter="url(#filter0_d_0_1)">
<rect x="62.2889" y="20.6436" width="76" height="76" rx="10" transform="rotate(23.7807 62.2889 20.6436)" fill="white"/>
</g>
<path d="M78.9844 75.61C80.9948 74.2717 82.5211 72.3218 83.3376 70.0489C84.1541 67.776 84.2175 65.3006 83.5183 62.9889C82.8192 60.6771 81.3947 58.6517 79.4554 57.2122C77.5162 55.7727 75.1651 54.9955 72.75 54.9955C70.3349 54.9955 67.9838 55.7727 66.0446 57.2122C64.1053 58.6517 62.6808 60.6771 61.9817 62.9889C61.2825 65.3006 61.3459 67.776 62.1624 70.0489C62.9789 72.3218 64.5052 74.2717 66.5156 75.61C62.879 76.9504 59.7733 79.4306 57.6619 82.6807C57.5509 82.8456 57.4738 83.031 57.4351 83.2259C57.3964 83.4209 57.3968 83.6216 57.4364 83.8165C57.4759 84.0113 57.5538 84.1963 57.6655 84.3607C57.7772 84.5252 57.9204 84.6658 58.0869 84.7744C58.2534 84.883 58.4399 84.9574 58.6354 84.9933C58.8309 85.0293 59.0316 85.026 59.2258 84.9836C59.4201 84.9413 59.6039 84.8608 59.7668 84.7467C59.9296 84.6327 60.0682 84.4875 60.1744 84.3194C61.5364 82.2246 63.4 80.5033 65.5962 79.3116C67.7923 78.12 70.2514 77.4958 72.75 77.4958C75.2486 77.4958 77.7077 78.12 79.9038 79.3116C82.1 80.5033 83.9636 82.2246 85.3256 84.3194C85.5456 84.6464 85.8855 84.8737 86.2717 84.9521C86.6579 85.0305 87.0595 84.9538 87.3896 84.7384C87.7197 84.5231 87.9518 84.1866 88.0357 83.8015C88.1197 83.4164 88.0487 83.0138 87.8381 82.6807C85.7267 79.4306 82.621 76.9504 78.9844 75.61ZM64.5 66.25C64.5 64.6184 64.9839 63.0233 65.8904 61.6666C66.7969 60.3099 68.0854 59.2525 69.5929 58.628C71.1004 58.0036 72.7592 57.8402 74.3595 58.1586C75.9598 58.4769 77.4298 59.2626 78.5836 60.4164C79.7374 61.5702 80.5232 63.0402 80.8415 64.6406C81.1598 66.2409 80.9964 67.8997 80.372 69.4072C79.7476 70.9147 78.6902 72.2031 77.3335 73.1097C75.9768 74.0162 74.3817 74.5 72.75 74.5C70.5627 74.4976 68.4657 73.6276 66.9191 72.0809C65.3725 70.5343 64.5025 68.4373 64.5 66.25ZM103.901 84.7563C103.568 84.9736 103.162 85.0496 102.773 84.9677C102.384 84.8857 102.043 84.6526 101.826 84.3194C100.465 82.2234 98.6018 80.5013 96.4052 79.3101C94.2086 78.119 91.7488 77.4967 89.25 77.5C88.8522 77.5 88.4706 77.342 88.1893 77.0607C87.908 76.7794 87.75 76.3979 87.75 76C87.75 75.6022 87.908 75.2207 88.1893 74.9394C88.4706 74.6581 88.8522 74.5 89.25 74.5C90.4649 74.4989 91.6646 74.2294 92.7634 73.7109C93.8621 73.1923 94.8327 72.4375 95.6059 71.5004C96.3791 70.5632 96.9358 69.4669 97.2361 68.2896C97.5365 67.1124 97.5731 65.8834 97.3434 64.6903C97.1137 63.4973 96.6234 62.3697 95.9074 61.3882C95.1914 60.4066 94.2675 59.5953 93.2016 59.0122C92.1357 58.4292 90.9542 58.0887 89.7415 58.0152C88.5288 57.9416 87.3148 58.1369 86.1863 58.5869C86.0023 58.6665 85.8042 58.7083 85.6037 58.71C85.4033 58.7117 85.2045 58.6732 85.0192 58.5968C84.8339 58.5204 84.6658 58.4076 84.5248 58.2651C84.3838 58.1226 84.2728 57.9533 84.1983 57.7672C84.1239 57.581 84.0875 57.3819 84.0913 57.1815C84.0951 56.981 84.1391 56.7834 84.2206 56.6003C84.3021 56.4171 84.4195 56.2522 84.5658 56.1152C84.7121 55.9781 84.8844 55.8718 85.0725 55.8025C87.6552 54.7725 90.5279 54.7355 93.1364 55.6985C95.7448 56.6615 97.9042 58.5565 99.198 61.0177C100.492 63.4789 100.828 66.3321 100.142 69.0268C99.4567 71.7214 97.7973 74.0667 95.4844 75.61C99.121 76.9504 102.227 79.4306 104.338 82.6807C104.555 83.0139 104.631 83.4197 104.55 83.809C104.468 84.1982 104.234 84.539 103.901 84.7563Z" fill="#CED3DF"/>
<circle cx="7" cy="105" r="5" fill="#CED2DF"/>
<rect x="40.0713" width="6" height="6" transform="rotate(45 40.0713 0)" fill="#D5DDE3"/>
<circle cx="164" cy="89" r="3" fill="#CED2DF"/>
<defs>
<filter id="filter0_d_0_1" x="0.823669" y="15.8243" width="161.832" height="161.832" filterUnits="userSpaceOnUse" color-interpolation-filters="sRGB">
<feFlood flood-opacity="0" result="BackgroundImageFix"/>
<feColorMatrix in="SourceAlpha" type="matrix" values="0 0 0 0 0 0 0 0 0 0 0 0 0 0 0 0 0 0 127 0" result="hardAlpha"/>
<feMorphology radius="10" operator="erode" in="SourceAlpha" result="effect1_dropShadow_0_1"/>
<feOffset dy="26"/>
<feGaussianBlur stdDeviation="22"/>
<feComposite in2="hardAlpha" operator="out"/>
<feColorMatrix type="matrix" values="0 0 0 0 0.399891 0 0 0 0 0.566781 0 0 0 0 0.720833 0 0 0 0.27 0"/>
<feBlend mode="normal" in2="BackgroundImageFix" result="effect1_dropShadow_0_1"/>
<feBlend mode="normal" in="SourceGraphic" in2="effect1_dropShadow_0_1" result="shape"/>
</filter>
</defs>
</svg>