<svg width="24" height="24" viewBox="0 0 24 24" fill="none" xmlns="http://www.w3.org/2000/svg">
<path fill-rule="evenodd" clip-rule="evenodd" d="M5.63604 5.63604C7.32387 3.94821 9.61305 3 12 3C14.3869 3 16.6761 3.94821 18.364 5.63604C20.0518 7.32387 21 9.61305 21 12C21 14.3869 20.0518 16.6761 18.364 18.364C16.6761 20.0518 14.3869 21 12 21C9.61305 21 7.32387 20.0518 5.63604 18.364C3.94821 16.6761 3 14.3869 3 12C3 9.61305 3.94821 7.32387 5.63604 5.63604ZM12 5C10.1435 5 8.36301 5.7375 7.05025 7.05025C5.7375 8.36301 5 10.1435 5 12C5 13.8565 5.7375 15.637 7.05025 16.9497C8.36301 18.2625 10.1435 19 12 19C13.8565 19 15.637 18.2625 16.9497 16.9497C18.2625 15.637 19 13.8565 19 12C19 10.1435 18.2625 8.36301 16.9497 7.05025C15.637 5.7375 13.8565 5 12 5Z" fill="currentColor"/>
<path fill-rule="evenodd" clip-rule="evenodd" d="M9.87868 9.87868C10.4413 9.31607 11.2043 9 12 9C12.7957 9 13.5587 9.31607 14.1213 9.87868C14.6839 10.4413 15 11.2043 15 12C15 12.7957 14.6839 13.5587 14.1213 14.1213C13.5587 14.6839 12.7957 15 12 15C11.2043 15 10.4413 14.6839 9.87868 14.1213C9.31607 13.5587 9 12.7957 9 12C9 11.2043 9.31607 10.4413 9.87868 9.87868ZM12 11C11.7348 11 11.4804 11.1054 11.2929 11.2929C11.1054 11.4804 11 11.7348 11 12C11 12.2652 11.1054 12.5196 11.2929 12.7071C11.4804 12.8946 11.7348 13 12 13C12.2652 13 12.5196 12.8946 12.7071 12.7071C12.8946 12.5196 13 12.2652 13 12C13 11.7348 12.8946 11.4804 12.7071 11.2929C12.5196 11.1054 12.2652 11 12 11Z" fill="currentColor"/>
<path fill-rule="evenodd" clip-rule="evenodd" d="M12 1C12.5523 1 13 1.44772 13 2V4C13 4.55228 12.5523 5 12 5C11.4477 5 11 4.55228 11 4V2C11 1.44772 11.4477 1 12 1Z" fill="currentColor"/>
<path fill-rule="evenodd" clip-rule="evenodd" d="M12 19C12.5523 19 13 19.4477 13 20V22C13 22.5523 12.5523 23 12 23C11.4477 23 11 22.5523 11 22V20C11 19.4477 11.4477 19 12 19Z" fill="currentColor"/>
<path fill-rule="evenodd" clip-rule="evenodd" d="M15.4997 18.0642C15.9779 17.7878 16.5895 17.9514 16.8659 18.4295L17.8659 20.1595C18.1423 20.6377 17.9788 21.2494 17.5006 21.5257C17.0225 21.8021 16.4108 21.6386 16.1344 21.1604L15.1344 19.4304C14.858 18.9523 15.0216 18.3406 15.4997 18.0642Z" fill="currentColor"/>
<path fill-rule="evenodd" clip-rule="evenodd" d="M6.50026 2.47393C6.97859 2.19784 7.59016 2.36178 7.86625 2.84011L11.8662 9.77011C12.1423 10.2484 11.9784 10.86 11.5001 11.1361C11.0217 11.4122 10.4102 11.2482 10.1341 10.7699L6.13409 3.83991C5.858 3.36159 6.02194 2.75002 6.50026 2.47393Z" fill="currentColor"/>
<path fill-rule="evenodd" clip-rule="evenodd" d="M18.0641 15.4996C18.3405 15.0214 18.9521 14.8579 19.4303 15.1343L21.1603 16.1343C21.6384 16.4107 21.802 17.0223 21.5256 17.5005C21.2492 17.9786 20.6376 18.1422 20.1594 17.8658L18.4294 16.8658C17.9513 16.5894 17.7877 15.9778 18.0641 15.4996Z" fill="currentColor"/>
<path fill-rule="evenodd" clip-rule="evenodd" d="M2.47424 6.4996C2.75063 6.02145 3.3623 5.85789 3.84045 6.13428L5.57045 7.13428C6.04861 7.41066 6.21217 8.02234 5.93578 8.50049C5.65939 8.97864 5.04772 9.1422 4.56957 8.86581L2.83957 7.86581C2.36142 7.58943 2.19785 6.97775 2.47424 6.4996Z" fill="currentColor"/>
<path fill-rule="evenodd" clip-rule="evenodd" d="M13 12C13 11.4477 13.4477 11 14 11H22C22.5523 11 23 11.4477 23 12C23 12.5523 22.5523 13 22 13H14C13.4477 13 13 12.5523 13 12Z" fill="currentColor"/>
<path fill-rule="evenodd" clip-rule="evenodd" d="M1 12C1 11.4477 1.44772 11 2 11H4C4.55228 11 5 11.4477 5 12C5 12.5523 4.55228 13 4 13H2C1.44772 13 1 12.5523 1 12Z" fill="currentColor"/>
<path fill-rule="evenodd" clip-rule="evenodd" d="M21.5256 6.4996C21.802 6.97775 21.6384 7.58943 21.1603 7.86581L19.4303 8.86581C18.9521 9.1422 18.3405 8.97864 18.0641 8.50049C17.7877 8.02234 17.9513 7.41066 18.4294 7.13428L20.1594 6.13428C20.6376 5.85789 21.2492 6.02145 21.5256 6.4996Z" fill="currentColor"/>
<path fill-rule="evenodd" clip-rule="evenodd" d="M5.93578 15.4996C6.21217 15.9778 6.04861 16.5894 5.57045 16.8658L3.84045 17.8658C3.3623 18.1422 2.75063 17.9786 2.47424 17.5005C2.19785 17.0223 2.36142 16.4107 2.83957 16.1343L4.56957 15.1343C5.04772 14.8579 5.65939 15.0214 5.93578 15.4996Z" fill="currentColor"/>
<path fill-rule="evenodd" clip-rule="evenodd" d="M17.5006 2.47424C17.9788 2.75063 18.1423 3.3623 17.8659 3.84045L16.8659 5.57045C16.5895 6.04861 15.9779 6.21217 15.4997 5.93578C15.0216 5.65939 14.858 5.04772 15.1344 4.56957L16.1344 2.83957C16.4108 2.36142 17.0225 2.19785 17.5006 2.47424Z" fill="currentColor"/>
<path fill-rule="evenodd" clip-rule="evenodd" d="M11.5001 12.8639C11.9784 13.14 12.1423 13.7516 11.8662 14.2299L7.86625 21.1599C7.59016 21.6383 6.97859 21.8022 6.50026 21.5261C6.02194 21.25 5.858 20.6384 6.13409 20.1601L10.1341 13.2301C10.4102 12.7518 11.0217 12.5879 11.5001 12.8639Z" fill="currentColor"/>
</svg>
