<svg width="20" height="21" fill="none" xmlns="http://www.w3.org/2000/svg">
    <path d="m9.058 18.425.646.382-.646-.382Zm.216-.365-.645-.382.645.382Zm-1.881 0 .645-.382-.645.382Zm.216.365-.645.382.645-.382Zm-5.688-3.65.693-.286-.693.287Zm3.32 2.046.024-.75-.024.75Zm-1.516-.241-.287.693.287-.693Zm11.022-1.804.693.287-.693-.287Zm-3.321 2.045-.024-.75.024.75Zm1.517-.241.287.693-.287-.693Zm.466-10.589.391-.64-.391.64Zm1.1 1.1.64-.391-.64.392Zm-11.25-1.1-.392-.64.392.64Zm-1.1 1.1-.64-.391.64.392Zm4.438 9.928-.382.645.382-.645Zm3.107 1.788.216-.365-1.291-.764-.216.365 1.29.764Zm-2.956-.365.216.365 1.29-.764-.216-.365-1.29.764Zm1.665-.399a.07.07 0 0 1-.029.029.108.108 0 0 1-.05.011.108.108 0 0 1-.051-.011.07.07 0 0 1-.028-.029l-1.291.764c.612 1.035 2.127 1.035 2.74 0l-1.291-.764ZM7.333 6.25h2v-1.5h-2v1.5Zm6.917 4.917v.666h1.5v-.666h-1.5Zm-11.833.666v-.666h-1.5v.666h1.5Zm-1.5 0c0 .767 0 1.379.033 1.875.035.503.107.942.278 1.355l1.386-.574c-.083-.2-.138-.456-.167-.883-.03-.433-.03-.986-.03-1.773h-1.5Zm4.348 4.238c-.657-.02-.997-.078-1.253-.184l-.574 1.386c.519.215 1.087.275 1.78.297l.047-1.499Zm-4.037-1.008c.414 1 1.21 1.795 2.21 2.21l.574-1.386a2.583 2.583 0 0 1-1.398-1.398l-1.386.574Zm13.022-3.23c0 .787 0 1.34-.03 1.773-.029.427-.084.683-.166.883l1.386.574c.17-.413.242-.852.277-1.355.034-.496.033-1.108.033-1.875h-1.5Zm-2.8 5.737c.693-.022 1.26-.082 1.78-.297l-.574-1.386c-.257.106-.597.163-1.254.184l.048 1.5Zm2.604-3.081a2.583 2.583 0 0 1-1.398 1.398l.574 1.386c1-.415 1.795-1.21 2.21-2.21l-1.386-.574ZM9.334 6.25c1.105 0 1.882 0 2.484.058.59.056.936.161 1.199.323l.784-1.28c-.539-.33-1.14-.47-1.841-.536-.69-.066-1.55-.065-2.626-.065v1.5Zm6.416 4.917c0-1.077.001-1.937-.064-2.627-.067-.7-.207-1.302-.537-1.84l-1.28.784c.162.263.267.608.323 1.198.057.602.058 1.379.058 2.485h1.5ZM13.017 6.63c.347.213.64.505.853.853l1.279-.784A4.083 4.083 0 0 0 13.8 5.352l-.784 1.279ZM7.334 4.75c-1.077 0-1.937 0-2.627.065-.7.066-1.302.207-1.84.537L3.65 6.63c.263-.162.608-.267 1.198-.323.602-.057 1.379-.058 2.485-.058v-1.5Zm-4.917 6.417c0-1.106 0-1.883.058-2.485.056-.59.161-.935.323-1.198L1.518 6.7c-.33.538-.47 1.14-.536 1.84-.066.69-.065 1.55-.065 2.627h1.5Zm.45-5.815A4.083 4.083 0 0 0 1.519 6.7l1.279.784c.213-.348.505-.64.853-.853l-.784-1.28Zm5.171 12.326c-.166-.28-.316-.536-.462-.738a1.982 1.982 0 0 0-.597-.567l-.764 1.291a.53.53 0 0 1 .147.158c.096.131.205.315.386.62l1.29-.764Zm-2.82-.108a9.9 9.9 0 0 1 .777.042c.162.02.207.044.22.052l.764-1.29a2.01 2.01 0 0 0-.802-.251c-.256-.032-.565-.04-.912-.052l-.048 1.5Zm4.702.872c.18-.305.29-.489.385-.62a.53.53 0 0 1 .147-.158l-.764-1.29c-.257.151-.44.352-.596.566-.147.202-.297.457-.463.738l1.29.764Zm1.482-2.37c-.347.01-.656.02-.911.05a2.01 2.01 0 0 0-.803.251l.764 1.291c.014-.008.059-.033.22-.052.174-.021.404-.03.778-.042l-.048-1.499Z"
          fill="currentColor"/>
    <path d="m18.096 10.864.693.287-.693-.287Zm-1.692 1.691.288.693-.288-.693Zm.437-9.927-.392.64.392-.64Zm1.032 1.032.64-.392-.64.392ZM7.326 2.628l-.392-.639.392.64ZM6.294 3.66l-.64-.392.64.392Zm4.852-.742h1.875v-1.5h-1.875v1.5Zm6.438 4.562v.625h1.5V7.48h-1.5Zm0 .625c0 .739 0 1.255-.028 1.66-.027.397-.078.631-.153.812l1.386.574c.163-.394.23-.81.263-1.285.032-.467.032-1.043.032-1.76h-1.5Zm-.181 2.472a2.375 2.375 0 0 1-1.285 1.285l.574 1.386a3.874 3.874 0 0 0 2.097-2.097l-1.386-.574ZM13.02 2.918c1.038 0 1.763 0 2.325.054.55.053.866.15 1.104.296l.783-1.279c-.513-.315-1.085-.447-1.745-.51-.65-.062-1.458-.061-2.467-.061v1.5Zm6.063 4.562c0-1.008 0-1.817-.061-2.466-.063-.66-.196-1.232-.51-1.746l-1.28.784c.146.238.244.553.296 1.104.054.562.055 1.287.055 2.324h1.5ZM16.45 3.268c.32.196.588.464.784.784l1.279-.784a3.875 3.875 0 0 0-1.28-1.279l-.784 1.279Zm-5.304-1.85c-1.008 0-1.817 0-2.466.06-.66.064-1.233.196-1.746.511l.784 1.279c.238-.146.553-.243 1.104-.296.561-.053 1.287-.054 2.324-.054v-1.5Zm-4.212.571c-.521.32-.96.758-1.28 1.28l1.28.783c.195-.32.464-.588.784-.784l-.784-1.279ZM6.61 5.54c.042-.795.145-1.196.324-1.488l-1.28-.784c-.38.622-.497 1.336-.542 2.194l1.498.078Zm8.415 7.99c.642-.021 1.176-.079 1.667-.282l-.575-1.386c-.23.095-.537.149-1.142.17l.05 1.498Z"
          fill="currentColor"/>
    <path d="M5.424 11.332h.007m2.902 0h.007m2.902 0h.007" stroke="currentColor" stroke-width="2" stroke-linecap="round"
          stroke-linejoin="round"/>
</svg>