<svg xmlns="http://www.w3.org/2000/svg" width="20" height="20" fill="none" viewBox="0 0 20 20">
    <path fill="currentColor"
          d="M8.75 10.501a.75.75 0 0 0 0 1.5v-1.5Zm5 1.5a.75.75 0 0 0 0-1.5v1.5ZM12 8.751a.75.75 0 0 0-1.5 0H12Zm-1.5 5a.75.75 0 0 0 1.5 0h-1.5ZM10 4.918h2.5v-1.5H10v1.5Zm6.75 4.25v4.167h1.5V9.168h-1.5Zm-4.25 8.417H10v1.5h2.5v-1.5Zm-6.75-4.25V9.168h-1.5v4.167h1.5Zm4.25 4.25c-1.2 0-2.024-.002-2.643-.085-.598-.08-.89-.224-1.094-.428l-1.061 1.06c.529.53 1.19.752 1.955.854.742.1 1.686.099 2.843.099v-1.5Zm-5.75-4.25c0 1.157-.002 2.1.098 2.843.103.764.325 1.426.854 1.955l1.06-1.06c-.203-.204-.347-.497-.427-1.095-.083-.62-.085-1.444-.085-2.643h-1.5Zm12.5 0c0 1.2-.002 2.024-.085 2.643-.08.598-.224.89-.428 1.094l1.061 1.06c.529-.528.751-1.19.854-1.954.1-.743.098-1.686.098-2.843h-1.5Zm-4.25 5.75c1.157 0 2.1.001 2.843-.099.764-.102 1.426-.325 1.955-.853l-1.06-1.06c-.204.203-.497.346-1.095.427-.619.083-1.443.085-2.643.085v1.5Zm0-14.167c1.2 0 2.024.002 2.643.085.598.08.89.224 1.094.428l1.061-1.061c-.529-.529-1.19-.751-1.955-.854-.742-.1-1.686-.098-2.843-.098v1.5Zm5.75 4.25c0-1.157.002-2.1-.098-2.843-.103-.764-.325-1.426-.854-1.955l-1.06 1.06c.203.204.347.497.427 1.095.083.619.085 1.443.085 2.643h1.5ZM10 3.418c-1.157 0-2.1-.002-2.843.098-.764.103-1.426.325-1.955.854l1.06 1.06c.204-.203.497-.347 1.095-.427C7.976 4.92 8.8 4.918 10 4.918v-1.5Zm-4.25 5.75c0-1.2.002-2.024.085-2.643.08-.598.224-.89.428-1.094L5.202 4.37c-.529.529-.751 1.19-.854 1.955-.1.742-.098 1.686-.098 2.843h1.5Zm3 2.833h5v-1.5h-5v1.5Zm1.75-3.25v5H12v-5h-1.5ZM9.167 2.418H12.5v-1.5H9.167v1.5ZM3.25 13.335v-5h-1.5v5h1.5Zm-1.5 0A3.25 3.25 0 0 0 5 16.585v-1.5a1.75 1.75 0 0 1-1.75-1.75h-1.5ZM12.5 2.418c.966 0 1.75.783 1.75 1.75h1.5A3.25 3.25 0 0 0 12.5.918v1.5ZM9.167.918c-1.55 0-2.789-.002-3.758.129-.99.133-1.812.416-2.463 1.067l1.06 1.06c.326-.325.778-.53 1.603-.64.846-.114 1.965-.116 3.558-.116v-1.5ZM3.25 8.335c0-1.593.002-2.712.115-3.558.111-.825.316-1.277.642-1.602L2.946 2.114c-.65.65-.934 1.472-1.067 2.463-.13.97-.129 2.207-.129 3.758h1.5Z"/>
</svg>