<svg width="94" height="94" viewBox="0 0 94 94" fill="none" xmlns="http://www.w3.org/2000/svg">
    <rect x="47" y="9" width="53.74" height="53.74" rx="7.071" transform="rotate(45 47 9)" fill="#E3EBF1"/>
    <rect x="33.246" y="11.574" width="53.74" height="53.74" rx="7.071" transform="rotate(23.78 33.246 11.574)"
          fill="#fff"/>
    <path d="M59.02 49.433a.817.817 0 0 1 .145-.072l3.5-1.741-3.446-4.373-10.997 4.984 3.897 4.637 6.9-3.433v-.002Zm-25.187-8.036 12.638-5.728a.868.868 0 0 1 .72 0l12.637 5.728a.86.86 0 0 1 .341.268l4.51 5.722a.855.855 0 0 1-.324 1.31l-4.006 1.994v6.16a.863.863 0 0 1-.578.811l-12.51 5.67a.872.872 0 0 1-.858 0l-12.579-5.701a.86.86 0 0 1-.506-.78h-.004v-6.16l-4.006-1.993a.852.852 0 0 1-.323-1.31l4.509-5.722.012-.016a.872.872 0 0 1 .33-.252h-.003Zm.611 1.848-3.447 4.373 3.5 1.742c.052.019.1.044.146.072l6.9 3.432 3.898-4.636-10.997-4.985v.002ZM47.7 50.29v10.956l10.91-4.945v-4.744l-6.33 3.15a.872.872 0 0 1-1.059-.227L47.7 50.29Zm-1.74 10.956V50.29l-3.521 4.19a.87.87 0 0 1-1.06.226l-6.329-3.149v4.744l10.91 4.945ZM38.594 34.71c.339.337.339.882 0 1.219a.874.874 0 0 1-1.23 0l-2.933-2.91a.856.856 0 0 1 0-1.218.874.874 0 0 1 1.229 0l2.934 2.909Zm17.702 1.219a.874.874 0 0 1-1.229 0 .856.856 0 0 1 0-1.219L58 31.799a.874.874 0 0 1 1.229 0c.34.338.34.883 0 1.22l-2.934 2.909Zm-10.334-8.39c0-.476.39-.862.869-.862s.868.386.868.861v4.057c0 .475-.39.862-.868.862a.866.866 0 0 1-.87-.862v-4.057Zm-9.697 14.645 10.565 4.789 10.565-4.79-10.565-4.788-10.565 4.789Z"
          fill="#CED3DF"/>
    <circle cx="14" cy="76" r="3" fill="#D5DDE3"/>
    <path fill="#D5DDE3" d="m17.581 14 2.732 2.731-2.732 2.732-2.732-2.732z"/>
    <circle cx="82" cy="60" r="2" fill="#D5DDE3"/>
</svg>