<svg width="24" height="24" viewBox="0 0 24 24" fill="none" xmlns="http://www.w3.org/2000/svg">
<path fill-rule="evenodd" clip-rule="evenodd" d="M3.11166 12C3.19367 12.1573 3.30197 12.355 3.43724 12.5823C3.80124 13.1938 4.35426 14.0082 5.10761 14.8195C6.61492 16.4428 8.86797 18 11.9998 18C15.1317 18 17.3847 16.4428 18.892 14.8195C19.6454 14.0082 20.1984 13.1938 20.5624 12.5823C20.6977 12.355 20.806 12.1573 20.888 12C20.806 11.8427 20.6977 11.645 20.5624 11.4177C20.1984 10.8062 19.6454 9.99176 18.892 9.18045C17.3847 7.55719 15.1317 6 11.9998 6C8.86797 6 6.61492 7.55719 5.10761 9.18045C4.35426 9.99176 3.80124 10.8062 3.43724 11.4177C3.30197 11.645 3.19367 11.8427 3.11166 12ZM21.9998 12C22.919 11.6061 22.9188 11.6057 22.9186 11.6052L22.9171 11.6018L22.9141 11.5949L22.9047 11.5736C22.897 11.5561 22.8861 11.5321 22.8723 11.5021C22.8445 11.4419 22.8044 11.3574 22.7517 11.252C22.6463 11.0413 22.4902 10.7462 22.281 10.3948C21.8637 9.69378 21.2293 8.75824 20.3576 7.81955C18.6149 5.9428 15.868 4 11.9998 4C8.13167 4 5.38472 5.9428 3.64203 7.81955C2.77038 8.75824 2.1359 9.69378 1.71865 10.3948C1.50946 10.7462 1.35332 11.0413 1.24797 11.252C1.19526 11.3574 1.15516 11.4419 1.12739 11.5021C1.1135 11.5321 1.10269 11.5561 1.09492 11.5736L1.08553 11.5949L1.08254 11.6018L1.08147 11.6042L1.08104 11.6052C1.08085 11.6057 1.08068 11.6061 1.99982 12L1.08104 11.6052C0.973229 11.8568 0.972868 12.1424 1.08068 12.3939L1.99982 12C1.08068 12.3939 1.08049 12.3935 1.08068 12.3939L1.08147 12.3958L1.08254 12.3982L1.08553 12.4051L1.09492 12.4264C1.10269 12.4439 1.1135 12.4679 1.12739 12.4979C1.15516 12.5581 1.19526 12.6426 1.24797 12.748C1.35332 12.9587 1.50946 13.2538 1.71865 13.6052C2.1359 14.3062 2.77038 15.2418 3.64203 16.1805C5.38472 18.0572 8.13167 20 11.9998 20C15.868 20 18.6149 18.0572 20.3576 16.1805C21.2293 15.2418 21.8637 14.3062 22.281 13.6052C22.4902 13.2538 22.6463 12.9587 22.7517 12.748C22.8044 12.6426 22.8445 12.5581 22.8723 12.4979C22.8861 12.4679 22.897 12.4439 22.9047 12.4264L22.9141 12.4051L22.9171 12.3982L22.9186 12.3948C22.9188 12.3943 22.919 12.3939 21.9998 12ZM21.9998 12L22.9186 12.3948C23.0264 12.1432 23.0264 11.8568 22.9186 11.6052L21.9998 12Z" fill="currentColor"/>
<path fill-rule="evenodd" clip-rule="evenodd" d="M12 10C10.8954 10 10 10.8954 10 12C10 13.1046 10.8954 14 12 14C13.1046 14 14 13.1046 14 12C14 10.8954 13.1046 10 12 10ZM8 12C8 9.79086 9.79086 8 12 8C14.2091 8 16 9.79086 16 12C16 14.2091 14.2091 16 12 16C9.79086 16 8 14.2091 8 12Z" fill="currentColor"/>
</svg>
