<svg width="48" height="48" viewBox="0 0 48 48" fill="none" xmlns="http://www.w3.org/2000/svg">
<path d="M8 40H40C41.0609 40 42.0783 39.5786 42.8284 38.8284C43.5786 38.0783 44 37.0609 44 36V16C44 14.9391 43.5786 13.9217 42.8284 13.1716C42.0783 12.4214 41.0609 12 40 12H24.14C23.4812 11.9966 22.8334 11.8305 22.2542 11.5165C21.675 11.2025 21.1824 10.7502 20.82 10.2L19.18 7.8C18.8176 7.24976 18.325 6.79754 17.7458 6.48352C17.1666 6.1695 16.5188 6.00341 15.86 6H8C6.93913 6 5.92172 6.42143 5.17157 7.17157C4.42143 7.92172 4 8.93913 4 10V36C4 38.2 5.8 40 8 40Z" stroke="#8990A2" stroke-width="3" stroke-linecap="round" stroke-linejoin="round"/>
</svg>
