<svg width="24" height="24" viewBox="0 0 24 24" fill="none" xmlns="http://www.w3.org/2000/svg">
<path fill-rule="evenodd" clip-rule="evenodd" d="M12.3511 1.06367C12.1247 0.978776 11.8753 0.978776 11.6489 1.06367L3.64888 4.06367C3.25857 4.21003 3 4.58316 3 5V12C3 15.4464 5.28175 18.2003 7.3415 20.0026C8.39238 20.9221 9.43854 21.6408 10.22 22.1292C10.6118 22.3741 10.9397 22.5627 11.1719 22.6913C11.2881 22.7556 11.3806 22.805 11.4453 22.839C11.4777 22.856 11.5032 22.8692 11.5212 22.8784L11.5427 22.8894L11.5492 22.8926L11.5514 22.8937L11.5522 22.8941C11.5525 22.8943 11.5528 22.8944 12 22L11.5528 22.8944C11.8343 23.0352 12.1657 23.0352 12.4472 22.8944L12 22C12.4472 22.8944 12.4475 22.8943 12.4478 22.8941L12.4486 22.8937L12.4508 22.8926L12.4573 22.8894L12.4788 22.8784C12.4968 22.8692 12.5223 22.856 12.5547 22.839C12.6194 22.805 12.7119 22.7556 12.8281 22.6913C13.0603 22.5627 13.3882 22.3741 13.78 22.1292C14.5615 21.6408 15.6076 20.9221 16.6585 20.0026C18.7183 18.2003 21 15.4464 21 12V5C21 4.58316 20.7414 4.21003 20.3511 4.06367L12.3511 1.06367ZM12.72 20.4333C12.4367 20.6103 12.1916 20.7541 12 20.8628C11.8084 20.7541 11.5633 20.6103 11.28 20.4333C10.5615 19.9842 9.60762 19.3279 8.6585 18.4974C6.71825 16.7997 5 14.5536 5 12V5.693L12 3.068L19 5.693V12C19 14.5536 17.2817 16.7997 15.3415 18.4974C14.3924 19.3279 13.4385 19.9842 12.72 20.4333ZM15.7071 10.7071C16.0976 10.3166 16.0976 9.68342 15.7071 9.29289C15.3166 8.90237 14.6834 8.90237 14.2929 9.29289L11 12.5858L9.70711 11.2929C9.31658 10.9024 8.68342 10.9024 8.29289 11.2929C7.90237 11.6834 7.90237 12.3166 8.29289 12.7071L10.2929 14.7071C10.6834 15.0976 11.3166 15.0976 11.7071 14.7071L15.7071 10.7071Z" fill="currentColor"/>
</svg>
