<svg width="24" height="24" viewBox="0 0 24 24" fill="none" xmlns="http://www.w3.org/2000/svg">
<path fill-rule="evenodd" clip-rule="evenodd" d="M14 4H10V10H14C15.0619 10 15.7848 9.61172 16.2524 9.08566C16.7363 8.54119 16.9998 7.78695 16.9998 7C16.9998 6.21305 16.7363 5.45881 16.2524 4.91434C15.7848 4.38828 15.0619 4 14 4ZM8 3C8 2.44772 8.44772 2 9 2H14C15.6046 2 16.8816 2.61172 17.7472 3.58566C18.5966 4.54119 18.9998 5.78695 18.9998 7C18.9998 8.21305 18.5966 9.45881 17.7472 10.4143C16.8816 11.3883 15.6046 12 14 12H10V14H14C14.5523 14 15 14.4477 15 15C15 15.5523 14.5523 16 14 16H10V21C10 21.5523 9.55228 22 9 22C8.44772 22 8 21.5523 8 21V16H6C5.44772 16 5 15.5523 5 15C5 14.4477 5.44772 14 6 14H8V12H6C5.44772 12 5 11.5523 5 11C5 10.4477 5.44772 10 6 10H8V3Z" fill="currentColor"/>
</svg>
