<svg width="24" height="24" viewBox="0 0 24 24" fill="none" xmlns="http://www.w3.org/2000/svg">
<path fill-rule="evenodd" clip-rule="evenodd" d="M5.24313 6.00005H12.5C12.8105 6.00005 13.1167 6.07234 13.3944 6.21119C13.6721 6.35005 13.9137 6.55166 14.1 6.80005L16.5596 10.0795L21.32 10.8729C21.3208 10.8731 21.3217 10.8732 21.3225 10.8733C21.7913 10.9499 22.2176 11.1909 22.525 11.5532C22.8326 11.9157 23.001 12.376 23 12.8514C23 12.8519 23 12.8524 23 12.8529L22.0001 12.85H23V12.8514V16C23 16.5523 22.5523 17 22 17H19C18.4477 17 18 16.5523 18 16C18 15.4478 18.4477 15 19 15H21V16H22V15H21V12.85L21 12.8472L20.9956 12.8464L15.8356 11.9864C15.5819 11.9442 15.3543 11.8058 15.2 11.6L12.5 8.00005H5.23304C5.04668 7.99875 4.86366 8.04954 4.70463 8.14672C4.54684 8.24314 4.41891 8.38142 4.33501 8.54614L4.33771 8.54064L3.44 8.10005L4.33304 8.55002C4.33369 8.54873 4.33435 8.54743 4.33501 8.54614L3.53338 10.1795C3.18357 10.8748 3.0009 11.6422 3 12.4206C3 12.4208 3 12.4205 3 12.4206V15H2V16H3V15H4C4.55228 15 5 15.4478 5 16C5 16.5523 4.55228 17 4 17H2C1.44772 17 1 16.5523 1 16L1 12.419C1.00116 11.3307 1.25604 10.2577 1.74437 9.28522L1.74229 9.28946L2.64 9.73005L1.74667 9.28065C1.7459 9.28218 1.74514 9.2837 1.74437 9.28522L2.54691 7.65005C2.79849 7.15074 3.18465 6.7317 3.66173 6.44015C4.13772 6.14927 4.68536 5.99688 5.24313 6.00005ZM8 16C8 15.4478 8.44772 15 9 15H14C14.5523 15 15 15.4478 15 16C15 16.5523 14.5523 17 14 17H9C8.44772 17 8 16.5523 8 16Z" fill="currentColor"/>
<path fill-rule="evenodd" clip-rule="evenodd" d="M6.5 15C5.67157 15 5 15.6716 5 16.5C5 17.3284 5.67157 18 6.5 18C7.32843 18 8 17.3284 8 16.5C8 15.6716 7.32843 15 6.5 15ZM3 16.5C3 14.567 4.567 13 6.5 13C8.433 13 10 14.567 10 16.5C10 18.433 8.433 20 6.5 20C4.567 20 3 18.433 3 16.5Z" fill="currentColor"/>
<path fill-rule="evenodd" clip-rule="evenodd" d="M16.5 15C15.6716 15 15 15.6716 15 16.5C15 17.3284 15.6716 18 16.5 18C17.3284 18 18 17.3284 18 16.5C18 15.6716 17.3284 15 16.5 15ZM13 16.5C13 14.567 14.567 13 16.5 13C18.433 13 20 14.567 20 16.5C20 18.433 18.433 20 16.5 20C14.567 20 13 18.433 13 16.5Z" fill="currentColor"/>
</svg>
