<svg width="24" height="24" viewBox="0 0 24 24" fill="none" xmlns="http://www.w3.org/2000/svg">
<path fill-rule="evenodd" clip-rule="evenodd" d="M5.29291 3.29289C5.48045 3.10536 5.7348 3 6.00002 3H13V8C13 8.55228 13.4477 9 14 9H19V20C19 20.2652 18.8947 20.5196 18.7071 20.7071C18.5196 20.8946 18.2652 21 18 21H12C11.4477 21 11 21.4477 11 22C11 22.5523 11.4477 23 12 23H18C18.7957 23 19.5587 22.6839 20.1213 22.1213C20.684 21.5587 21 20.7957 21 20V8V7.5C21 7.23478 20.8947 6.98043 20.7071 6.79289L15.2071 1.29289C15.0196 1.10536 14.7652 1 14.5 1H14H6.00002C5.20437 1 4.44131 1.31607 3.8787 1.87868C3.31609 2.44129 3.00002 3.20435 3.00002 4V7C3.00002 7.55228 3.44774 8 4.00002 8C4.55231 8 5.00002 7.55228 5.00002 7V4C5.00002 3.73478 5.10538 3.48043 5.29291 3.29289ZM15 3.91421V7H18.0858L15 3.91421ZM2.17159 11.1716C2.92174 10.4214 3.93916 10 5.00002 10C5.52531 10 6.04545 10.1035 6.53075 10.3045C7.01606 10.5055 7.45701 10.8001 7.82845 11.1716C8.19988 11.543 8.49452 11.984 8.69554 12.4693C8.89656 12.9546 9.00002 13.4747 9.00002 14C9.00002 14.5253 8.89656 15.0454 8.69554 15.5307C8.53345 15.922 8.3105 16.2845 8.0355 16.605L8.98389 21.8211C9.0471 22.1688 8.92215 22.5239 8.65522 22.7555C8.38829 22.987 8.019 23.0604 7.68379 22.9487L5.00002 22.0541L2.31625 22.9487C1.98104 23.0604 1.61175 22.987 1.34482 22.7555C1.07789 22.5239 0.952944 22.1688 1.01615 21.8211L1.96454 16.605C1.34435 15.8824 1.00002 14.9589 1.00002 14C1.00002 12.9391 1.42145 11.9217 2.17159 11.1716ZM3.77843 17.8089L3.28601 20.5172L4.68379 20.0513C4.88906 19.9829 5.11098 19.9829 5.31625 20.0513L6.71403 20.5172L6.22161 17.8089C5.82741 17.9353 5.41532 18 5.00002 18C4.58148 18 4.1697 17.9344 3.77843 17.8089ZM5.00002 12C4.46959 12 3.96088 12.2107 3.58581 12.5858C3.21073 12.9609 3.00002 13.4696 3.00002 14C3.00002 14.5304 3.21073 15.0391 3.58581 15.4142C3.96088 15.7893 4.46959 16 5.00002 16C5.26267 16 5.52274 15.9483 5.76539 15.8478C6.00804 15.7472 6.22852 15.5999 6.41423 15.4142C6.59995 15.2285 6.74727 15.008 6.84778 14.7654C6.94829 14.5227 7.00002 14.2626 7.00002 14C7.00002 13.7374 6.94829 13.4773 6.84778 13.2346C6.74727 12.992 6.59995 12.7715 6.41423 12.5858C6.22852 12.4001 6.00804 12.2528 5.76539 12.1522C5.52274 12.0517 5.26267 12 5.00002 12Z" fill="currentColor"/>
</svg>
