<svg width="24" height="24" viewBox="0 0 24 24" fill="none" xmlns="http://www.w3.org/2000/svg">
<path d="M8.5 12.5H8.50917M12.5 12.5H12.5092M16.5 12.5H16.5092M22 12.4445C22.0038 13.911 21.6612 15.3577 21 16.6667C20.216 18.2353 19.0108 19.5546 17.5194 20.477C16.0279 21.3993 14.3091 21.8882 12.5555 21.8889C11.089 21.8927 9.64234 21.5501 8.33332 20.8889L3 22L4.11111 16.6667C3.44992 15.3577 3.10729 13.911 3.11111 12.4445C3.11179 10.6909 3.60068 8.97208 4.52302 7.48064C5.44536 5.98919 6.76472 4.78399 8.33332 4.00003C9.64234 3.33884 11.089 2.99621 12.5555 3.00003H13.1111C15.427 3.1278 17.6145 4.10532 19.2546 5.74543C20.8947 7.38553 21.8722 9.57297 22 11.8889V12.4445Z" stroke="#373F54" stroke-width="2" stroke-linecap="round" stroke-linejoin="round"/>
</svg>
