<svg width="24" height="24" viewBox="0 0 24 24" fill="none" xmlns="http://www.w3.org/2000/svg">
<path d="M21 11.5C21.0034 12.8199 20.6951 14.1219 20.1 15.3C19.3944 16.7118 18.3098 17.8992 16.9674 18.7293C15.6251 19.5594 14.0782 19.9994 12.5 20C11.1801 20.0035 9.87812 19.6951 8.7 19.1L3 21L4.9 15.3C4.30493 14.1219 3.99656 12.8199 4 11.5C4.00061 9.92179 4.44061 8.37488 5.27072 7.03258C6.10083 5.69028 7.28825 4.6056 8.7 3.90003C9.87812 3.30496 11.1801 2.99659 12.5 3.00003H13C15.0843 3.11502 17.053 3.99479 18.5291 5.47089C20.0052 6.94699 20.885 8.91568 21 11V11.5Z" stroke="currentColor" stroke-width="2" stroke-linecap="round" stroke-linejoin="round"/>
<path d="M7.75195 14.9998V8.45437H9.48207V9.6092H9.55877C9.69513 9.22567 9.92241 8.92312 10.2406 8.70153C10.5588 8.47994 10.9395 8.36914 11.3826 8.36914C11.8315 8.36914 12.2136 8.48136 12.5289 8.70579C12.8443 8.92738 13.0545 9.22852 13.1596 9.6092H13.2278C13.3613 9.2342 13.6028 8.93448 13.9522 8.71005C14.3045 8.48278 14.7207 8.36914 15.2008 8.36914C15.8116 8.36914 16.3074 8.56374 16.688 8.95295C17.0716 9.33931 17.2633 9.88761 17.2633 10.5978V14.9998H15.4522V10.9558C15.4522 10.5922 15.3556 10.3194 15.1625 10.1376C14.9693 9.95579 14.7278 9.86488 14.438 9.86488C14.1085 9.86488 13.8514 9.96999 13.6667 10.1802C13.4821 10.3876 13.3897 10.6618 13.3897 11.0027V14.9998H11.6298V10.9174C11.6298 10.5964 11.5375 10.3407 11.3528 10.1504C11.171 9.96005 10.9309 9.86488 10.6326 9.86488C10.4309 9.86488 10.2491 9.91602 10.0872 10.0183C9.92809 10.1177 9.80167 10.2583 9.70792 10.4402C9.61417 10.6191 9.56729 10.8294 9.56729 11.0708V14.9998H7.75195Z" fill="currentColor"/>
</svg>
