<svg width="14" height="14" viewBox="0 0 14 14" fill="none" xmlns="http://www.w3.org/2000/svg">
<g opacity="0.4" clip-path="url(#clip0_1747_48282)">
<path d="M9.04167 7.79167H9.03632M6.70833 7.79167H6.70299M4.375 7.79167H4.36965M1.16668 7.75927C1.16445 8.61474 1.36432 9.45864 1.75002 10.2222C2.20733 11.1372 2.91036 11.9069 3.78037 12.4449C4.65038 12.9829 5.653 13.2681 6.67594 13.2685C7.5314 13.2707 8.3753 13.0709 9.1389 12.6852L12.25 13.3333L11.6019 10.2222C11.9875 9.45864 12.1874 8.61474 12.1852 7.75927C12.1848 6.73634 11.8996 5.73371 11.3616 4.8637C10.8235 3.9937 10.0539 3.29066 9.1389 2.83335C8.3753 2.44766 7.5314 2.24779 6.67594 2.25002H6.35186C5.0009 2.32455 3.72489 2.89477 2.76817 3.8515C1.81144 4.80823 1.24122 6.08423 1.16668 7.4352V7.75927Z" stroke="white" stroke-width="1.5" stroke-linecap="round" stroke-linejoin="round"/>
</g>
<defs>
<clipPath id="clip0_1747_48282">
<rect width="14" height="14" fill="white" transform="matrix(-1 0 0 1 14 0.5)"/>
</clipPath>
</defs>
</svg>
