<svg xmlns="http://www.w3.org/2000/svg" width="22" height="22" fill="none" viewBox="0 0 22 22">
    <path fill="currentColor"
          d="m19.535 19.535-.53-.53.53.53ZM12 20.25a.75.75 0 0 0 .002 1.5L12 20.25ZM.25 10a.75.75 0 1 0 1.5.002L.25 10ZM16.53 6.53a.75.75 0 0 0-1.061-1.06l1.06 1.06ZM11 11h-.75c0 .414.336.75.75.75V11Zm3.75.75a.75.75 0 0 0 0-1.5v1.5Zm-3-4.5a.75.75 0 0 0-1.5 0h1.5Zm8.5 3.75c0 2.378-.002 4.086-.176 5.386-.172 1.279-.5 2.05-1.069 2.62l1.06 1.06c.896-.895 1.301-2.035 1.495-3.48.192-1.423.19-3.25.19-5.586h-1.5ZM11 1.75c2.378 0 4.086.002 5.386.176 1.279.172 2.05.5 2.62 1.069l1.06-1.06C19.17 1.038 18.03.633 16.586.44 15.163.248 13.336.25 11 .25v1.5ZM21.75 11c0-2.336.002-4.163-.19-5.586-.194-1.445-.6-2.585-1.494-3.48l-1.06 1.06c.569.57.896 1.341 1.068 2.62.174 1.3.176 3.008.176 5.386h1.5ZM11 .25C8.664.25 6.837.248 5.414.44c-1.445.194-2.585.6-3.48 1.494l1.06 1.06c.57-.569 1.341-.896 2.62-1.068 1.3-.174 3.008-.176 5.386-.176V.25Zm1.001 21.5c2.016-.004 3.622-.03 4.898-.236 1.3-.21 2.338-.62 3.167-1.448l-1.06-1.06c-.53.528-1.23.847-2.346 1.027-1.138.184-2.621.213-4.661.216l.002 1.5ZM1.751 10c.003-2.04.032-3.523.216-4.66.18-1.117.5-1.818 1.028-2.346l-1.06-1.06C1.104 2.762.695 3.801.485 5.1.279 6.377.254 7.984.251 9.999l1.5.002ZM15.47 5.47l-5 5 1.06 1.06 5-5-1.06-1.06ZM11 11.75h3.75v-1.5H11v1.5Zm.75-.75V7.25h-1.5V11h1.5ZM5 20.25c-.964 0-1.612-.002-2.095-.067-.461-.062-.659-.169-.789-.3l-1.06 1.062c.455.455 1.022.64 1.65.725.606.082 1.372.08 2.294.08v-1.5ZM.25 17c0 .922-.002 1.688.08 2.294.084.628.27 1.195.725 1.65l1.061-1.06c-.13-.13-.237-.328-.3-.79-.064-.482-.066-1.13-.066-2.094H.25Zm8 0c0 .964-.002 1.612-.067 2.095-.062.461-.169.659-.3.789l1.062 1.06c.455-.455.64-1.022.725-1.65.082-.606.08-1.372.08-2.294h-1.5ZM5 21.75c.922 0 1.688.002 2.294-.08.628-.084 1.195-.27 1.65-.726l-1.06-1.06c-.13.13-.328.237-.79.3-.482.064-1.13.066-2.094.066v1.5Zm0-8c.964 0 1.612.002 2.095.066.461.063.659.17.789.3l1.06-1.06c-.455-.456-1.022-.642-1.65-.726-.606-.082-1.372-.08-2.294-.08v1.5ZM9.75 17c0-.922.002-1.688-.08-2.294-.084-.628-.27-1.195-.725-1.65l-1.061 1.06c.13.13.237.328.3.79.064.482.066 1.13.066 2.094h1.5ZM5 12.25c-.922 0-1.688-.002-2.294.08-.628.084-1.195.27-1.65.726l1.06 1.06c.13-.13.328-.237.79-.3.482-.064 1.13-.066 2.094-.066v-1.5ZM1.75 17c0-.964.002-1.612.067-2.095.062-.461.169-.659.3-.789l-1.062-1.06c-.455.455-.64 1.022-.725 1.65C.248 15.312.25 16.078.25 17h1.5Z"/>
</svg>