<svg width="20" height="20" viewBox="0 0 20 20" fill="none" xmlns="http://www.w3.org/2000/svg">
<g clip-path="url(#clip0_2173_169924)">
<path d="M5.00033 15.0003H3.33366C2.89163 15.0003 2.46771 14.8247 2.15515 14.5122C1.84259 14.1996 1.66699 13.7757 1.66699 13.3337V9.16699C1.66699 8.72497 1.84259 8.30104 2.15515 7.98848C2.46771 7.67592 2.89163 7.50033 3.33366 7.50033H16.667C17.109 7.50033 17.5329 7.67592 17.8455 7.98848C18.1581 8.30104 18.3337 8.72497 18.3337 9.16699V13.3337C18.3337 13.7757 18.1581 14.1996 17.8455 14.5122C17.5329 14.8247 17.109 15.0003 16.667 15.0003H15.0003M5.00033 7.50033V2.50033C5.00033 2.27931 5.08812 2.06735 5.2444 1.91107C5.40068 1.75479 5.61265 1.66699 5.83366 1.66699H14.167C14.388 1.66699 14.6 1.75479 14.7562 1.91107C14.9125 2.06735 15.0003 2.27931 15.0003 2.50033V7.50033M5.83366 11.667H14.167C14.6272 11.667 15.0003 12.0401 15.0003 12.5003V17.5003C15.0003 17.9606 14.6272 18.3337 14.167 18.3337H5.83366C5.37342 18.3337 5.00033 17.9606 5.00033 17.5003V12.5003C5.00033 12.0401 5.37342 11.667 5.83366 11.667Z" stroke="currentColor" stroke-width="1.5" stroke-linecap="round" stroke-linejoin="round"/>
</g>
<defs>
<clipPath id="clip0_2173_169924">
<rect width="20" height="20" fill="currentColor"/>
</clipPath>
</defs>
</svg>
