<svg width="24" height="24" viewBox="0 0 24 24" fill="none" xmlns="http://www.w3.org/2000/svg">
<path fill-rule="evenodd" clip-rule="evenodd" d="M21 1C21.5523 1 22 1.44772 22 2V8C22 8.55228 21.5523 9 21 9H15C14.4477 9 14 8.55228 14 8C14 7.44772 14.4477 7 15 7H20V2C20 1.44772 20.4477 1 21 1Z" fill="currentColor"/>
<path fill-rule="evenodd" clip-rule="evenodd" d="M12.4987 4.06522C10.7085 3.96461 8.93645 4.4683 7.46681 5.49547C5.99718 6.52264 4.91522 8.01374 4.39454 9.72949C3.87387 11.4452 3.94467 13.2862 4.59559 14.9569C5.24651 16.6276 6.4398 18.0311 7.98399 18.9424C9.52817 19.8537 11.3337 20.2198 13.1109 19.9819C14.8881 19.7441 16.5338 18.9162 17.7841 17.631C19.0343 16.3458 19.8166 14.6778 20.0054 12.8948C20.0635 12.3455 20.5559 11.9474 21.1051 12.0056C21.6543 12.0637 22.0524 12.5561 21.9942 13.1053C21.7583 15.3341 20.7805 17.4191 19.2177 19.0256C17.6548 20.6321 15.5976 21.667 13.3762 21.9643C11.1547 22.2615 8.89776 21.8039 6.96753 20.6648C5.0373 19.5258 3.54568 17.7713 2.73203 15.6829C1.91838 13.5946 1.82988 11.2934 2.48072 9.14871C3.13157 7.00402 4.48402 5.14015 6.32107 3.85619C8.15811 2.57222 10.3732 1.94261 12.611 2.06838C14.8487 2.19415 16.9793 3.06801 18.6609 4.54974L18.6688 4.55669L18.6688 4.55673L21.6688 7.25673C22.0793 7.62619 22.1126 8.25848 21.7431 8.66899C21.3736 9.0795 20.7413 9.11278 20.3308 8.74332L17.3349 6.04696C15.9902 4.86361 14.2872 4.16575 12.4987 4.06522Z" fill="currentColor"/>
</svg>
