<svg width="20" height="20" viewBox="0 0 20 20" fill="none" xmlns="http://www.w3.org/2000/svg">
    <path d="M10 12.501a2.5 2.5 0 1 0 0-5 2.5 2.5 0 0 0 0 5Z" stroke="currentColor" stroke-width="1.5" stroke-linecap="round"
          stroke-linejoin="round"/>
    <path d="M10.183 1.668h-.366A1.667 1.667 0 0 0 8.15 3.335v.15a1.667 1.667 0 0 1-.833 1.441l-.359.209a1.667 1.667 0 0 1-1.666 0l-.125-.067a1.667 1.667 0 0 0-2.275.608l-.184.317a1.667 1.667 0 0 0 .609 2.275l.125.083a1.667 1.667 0 0 1 .833 1.434v.425a1.667 1.667 0 0 1-.833 1.45l-.125.075a1.667 1.667 0 0 0-.609 2.275l.184.316a1.666 1.666 0 0 0 2.275.609l.125-.067a1.666 1.666 0 0 1 1.666 0l.359.208a1.667 1.667 0 0 1 .833 1.442v.15a1.667 1.667 0 0 0 1.667 1.667h.366a1.667 1.667 0 0 0 1.667-1.667v-.15a1.667 1.667 0 0 1 .833-1.442l.359-.208a1.666 1.666 0 0 1 1.666 0l.125.067a1.666 1.666 0 0 0 2.275-.609l.184-.325a1.667 1.667 0 0 0-.609-2.275l-.125-.066a1.667 1.667 0 0 1-.833-1.45v-.417a1.667 1.667 0 0 1 .833-1.45l.125-.075a1.667 1.667 0 0 0 .609-2.275l-.184-.317a1.667 1.667 0 0 0-2.275-.608l-.125.067a1.666 1.666 0 0 1-1.666 0l-.359-.209a1.667 1.667 0 0 1-.833-1.441v-.15a1.667 1.667 0 0 0-1.667-1.667Z"
          stroke="currentColor" stroke-width="1.5" stroke-linecap="round" stroke-linejoin="round"/>
</svg>