<svg width="24" height="24" viewBox="0 0 24 24" fill="none" xmlns="http://www.w3.org/2000/svg">
<path d="M22.0004 16.9201V19.9201C22.0016 20.1986 21.9445 20.4743 21.8329 20.7294C21.7214 20.9846 21.5577 21.2137 21.3525 21.402C21.1473 21.5902 20.905 21.7336 20.6412 21.8228C20.3773 21.912 20.0978 21.9452 19.8204 21.9201C16.7433 21.5857 13.7874 20.5342 11.1904 18.8501C8.77425 17.3148 6.72576 15.2663 5.19042 12.8501C3.5004 10.2413 2.44866 7.27109 2.12042 4.1801C2.09543 3.90356 2.1283 3.62486 2.21692 3.36172C2.30555 3.09859 2.44799 2.85679 2.63519 2.65172C2.82238 2.44665 3.05023 2.28281 3.30421 2.17062C3.5582 2.05843 3.83276 2.00036 4.11042 2.0001H7.11042C7.59573 1.99532 8.06621 2.16718 8.43418 2.48363C8.80215 2.80008 9.0425 3.23954 9.11042 3.7201C9.23704 4.68016 9.47187 5.62282 9.81042 6.5301C9.94497 6.88802 9.97408 7.27701 9.89433 7.65098C9.81457 8.02494 9.62928 8.36821 9.36042 8.6401L8.09042 9.9101C9.51398 12.4136 11.5869 14.4865 14.0904 15.9101L15.3604 14.6401C15.6323 14.3712 15.9756 14.1859 16.3495 14.1062C16.7235 14.0264 17.1125 14.0556 17.4704 14.1901C18.3777 14.5286 19.3204 14.7635 20.2804 14.8901C20.7662 14.9586 21.2098 15.2033 21.527 15.5776C21.8441 15.9519 22.0126 16.4297 22.0004 16.9201Z" fill="currentColor"/>
<path fill-rule="evenodd" clip-rule="evenodd" d="M13.0554 1.89529C13.1133 1.34605 13.6054 0.947714 14.1547 1.00559C16.4194 1.24422 18.5349 2.2487 20.1512 3.8529C21.7675 5.4571 22.7879 7.56493 23.0436 9.82781C23.1056 10.3766 22.7109 10.8718 22.1622 10.9338C21.6134 10.9958 21.1182 10.6011 21.0562 10.0524C20.8517 8.24205 20.0354 6.55579 18.7423 5.27242C17.4492 3.98906 15.7569 3.18548 13.9451 2.99458C13.3959 2.9367 12.9975 2.44454 13.0554 1.89529Z" fill="currentColor"/>
<path fill-rule="evenodd" clip-rule="evenodd" d="M13.0689 5.80673C13.1757 5.26488 13.7016 4.91224 14.2435 5.01908C15.4237 5.25181 16.5067 5.83392 17.3519 6.68985C18.1972 7.54579 18.7656 8.63604 18.9835 9.81908C19.0835 10.3622 18.7243 10.8836 18.1811 10.9837C17.6379 11.0837 17.1166 10.7244 17.0165 10.1813C16.8713 9.3926 16.4923 8.66577 15.9288 8.09514C15.3653 7.52452 14.6433 7.13645 13.8565 6.9813C13.3147 6.87445 12.962 6.34858 13.0689 5.80673Z" fill="currentColor"/>
</svg>
