<svg width="24" height="24" viewBox="0 0 24 24" fill="none" xmlns="http://www.w3.org/2000/svg">
<path fill-rule="evenodd" clip-rule="evenodd" d="M21.8398 6.05593C21.8834 5.79125 21.8552 5.51971 21.7582 5.26961C21.6612 5.01951 21.499 4.8 21.2883 4.63394C21.0776 4.46789 20.8262 4.36137 20.5604 4.32549C20.2946 4.28961 20.024 4.32567 19.7768 4.42993L2.67678 11.6299C1.48478 12.1319 1.42378 13.8559 2.67678 14.3759C3.9175 14.8934 5.1763 15.3663 6.45078 15.7939C7.61878 16.1799 8.89278 16.5369 9.91378 16.6379C10.1928 16.9719 10.5438 17.2929 10.9018 17.5879C11.4488 18.0379 12.1068 18.5009 12.7868 18.9449C14.1488 19.8349 15.6598 20.6859 16.6778 21.2399C17.8948 21.8999 19.3518 21.1399 19.5698 19.8129L21.8398 6.05593V6.05593ZM4.59378 12.9919L19.7178 6.62493L17.5998 19.4649C16.6008 18.9219 15.1618 18.1089 13.8798 17.2709C13.2889 16.8916 12.7185 16.4813 12.1708 16.0419C12.0244 15.9224 11.8823 15.7976 11.7448 15.6679L15.7058 11.7079C15.8934 11.5204 15.9989 11.2661 15.999 11.0008C15.9991 10.7355 15.8938 10.4811 15.7063 10.2934C15.5188 10.1058 15.2644 10.0003 14.9991 10.0002C14.7339 10.0001 14.4794 10.1054 14.2918 10.2929L9.95478 14.6299C9.22078 14.5359 8.19878 14.2639 7.07678 13.8939C6.24148 13.6157 5.41384 13.3149 4.59478 12.9919H4.59378Z" fill="currentColor"/>
</svg>
