<svg width="167" height="178" viewBox="0 0 167 178" fill="none" xmlns="http://www.w3.org/2000/svg">
<rect x="81.7402" y="17" width="76" height="76" rx="10" transform="rotate(45 81.7402 17)" fill="#E3EBF1"/>
<g filter="url(#filter0_d_294_26544)">
<rect x="62.2891" y="20.6436" width="76" height="76" rx="10" transform="rotate(23.7807 62.2891 20.6436)" fill="white"/>
</g>
<path d="M98.7375 74.1835C98.8017 74.1435 98.8708 74.1087 98.9432 74.0817L103.893 71.6193L99.0187 65.4348L83.4666 72.4844L88.9784 79.0418L98.7372 74.1872L98.7375 74.1835ZM63.1181 62.8193L80.9904 54.7187C81.3261 54.5657 81.6955 54.5769 82.0087 54.7187L99.881 62.8193C100.072 62.9022 100.238 63.0344 100.363 63.1985L106.741 71.2895C107.157 71.8183 107.062 72.5812 106.53 72.9938C106.452 73.0542 106.37 73.1038 106.283 73.1434L100.617 75.9623V84.6729C100.617 85.2032 100.275 85.6539 99.7996 85.8212L82.1089 93.8408C81.9308 93.9411 81.7236 94 81.5017 94C81.2818 94 81.0745 93.9426 80.8945 93.8408L63.1054 85.7768C62.6558 85.5727 62.3907 85.1331 62.3892 84.6732H62.3843V75.9626L56.7181 73.1437C56.6315 73.1055 56.5479 73.0544 56.4709 72.9941C55.9377 72.5815 55.8428 71.8187 56.2607 71.2898L62.6386 63.1988L62.6561 63.1766C62.7831 63.0221 62.9355 62.901 63.1218 62.8199L63.1181 62.8193ZM63.9823 65.433L59.1078 71.6175L64.0577 74.0799C64.1301 74.1069 64.1989 74.1421 64.2634 74.1817L74.0222 79.0364L79.5341 72.4789L63.982 65.4294L63.9823 65.433ZM82.7283 75.396V90.89L98.1581 83.8962V77.1877L89.2072 81.6409C88.6836 81.9005 88.0619 81.7524 87.7086 81.3209L82.728 75.396H82.7283ZM80.2692 90.89V75.396L75.2887 81.3209C74.9354 81.7542 74.3137 81.9009 73.7901 81.6409L64.8392 77.1877V83.8962L80.2689 90.89H80.2692ZM69.8489 53.3606C70.3291 53.8369 70.3291 54.6079 69.8489 55.0842C69.3687 55.5604 68.5912 55.5604 68.1109 55.0842L63.9624 50.9701C63.4821 50.4939 63.4821 49.7229 63.9624 49.2466C64.4426 48.7703 65.2201 48.7703 65.7004 49.2466L69.8489 53.3606ZM94.8844 55.0842C94.4042 55.5604 93.6267 55.5604 93.1465 55.0842C92.6662 54.6079 92.6662 53.8369 93.1465 53.3606L97.295 49.2466C97.7752 48.7703 98.5527 48.7703 99.033 49.2466C99.5132 49.7228 99.5132 50.4938 99.033 50.9701L94.8844 55.0842ZM80.2692 43.2184C80.2692 42.5463 80.82 42 81.4979 42C82.1757 42 82.7265 42.5462 82.7265 43.2184V48.9556C82.7265 49.6278 82.1757 50.174 81.4979 50.174C80.82 50.174 80.2692 49.6278 80.2692 48.9556V43.2184ZM66.5565 63.9304L81.4977 70.7027L96.4389 63.9304L81.4977 57.1581L66.5565 63.9304Z" fill="#CED3DF"/>
<circle cx="7" cy="105" r="5" fill="#CED2DF"/>
<rect x="40.0713" width="6" height="6" transform="rotate(45 40.0713 0)" fill="#D5DDE3"/>
<circle cx="164" cy="89" r="3" fill="#CED2DF"/>
<defs>
<filter id="filter0_d_294_26544" x="0.824219" y="15.8242" width="161.831" height="161.832" filterUnits="userSpaceOnUse" color-interpolation-filters="sRGB">
<feFlood flood-opacity="0" result="BackgroundImageFix"/>
<feColorMatrix in="SourceAlpha" type="matrix" values="0 0 0 0 0 0 0 0 0 0 0 0 0 0 0 0 0 0 127 0" result="hardAlpha"/>
<feMorphology radius="10" operator="erode" in="SourceAlpha" result="effect1_dropShadow_294_26544"/>
<feOffset dy="26"/>
<feGaussianBlur stdDeviation="22"/>
<feComposite in2="hardAlpha" operator="out"/>
<feColorMatrix type="matrix" values="0 0 0 0 0.399891 0 0 0 0 0.566781 0 0 0 0 0.720833 0 0 0 0.27 0"/>
<feBlend mode="normal" in2="BackgroundImageFix" result="effect1_dropShadow_294_26544"/>
<feBlend mode="normal" in="SourceGraphic" in2="effect1_dropShadow_294_26544" result="shape"/>
</filter>
</defs>
</svg>
