<svg width="20" height="20" viewBox="0 0 20 20" fill="none" xmlns="http://www.w3.org/2000/svg">
    <g clip-path="url(#a)" stroke="currentColor" stroke-width="1.5">
        <path d="M1.666 13.333c0-2.357 0-3.536.732-4.268.732-.732 1.911-.732 4.268-.732h6.667c2.357 0 3.535 0 4.268.732.732.732.732 1.911.732 4.268 0 2.357 0 3.536-.732 4.268-.733.732-1.911.732-4.268.732H6.666c-2.357 0-3.536 0-4.268-.732-.732-.732-.732-1.911-.732-4.268Z"/>
        <path d="M5 8.334V6.667a5 5 0 0 1 9.062-2.917M10 11.667V15" stroke-linecap="round"/>
    </g>
    <defs>
        <clipPath id="a">
            <path fill="#fff" d="M0 0h20v20H0z"/>
        </clipPath>
    </defs>
</svg>