<svg width="24" height="24" viewBox="0 0 24 24" fill="none" xmlns="http://www.w3.org/2000/svg">
<path fill-rule="evenodd" clip-rule="evenodd" d="M12 3C7.02944 3 3 7.02944 3 12C3 16.9706 7.02944 21 12 21C16.9706 21 21 16.9706 21 12C21 7.02944 16.9706 3 12 3ZM1 12C1 5.92487 5.92487 1 12 1C18.0751 1 23 5.92487 23 12C23 18.0751 18.0751 23 12 23C5.92487 23 1 18.0751 1 12Z" fill="currentColor"/>
<path fill-rule="evenodd" clip-rule="evenodd" d="M5.46442 17.4645C6.4021 16.5268 7.67387 16 8.99995 16H15C16.326 16 17.5978 16.5268 18.5355 17.4645C18.7579 17.6868 18.9572 17.9281 19.1319 18.1844C19.4428 18.6408 19.325 19.2629 18.8686 19.5739C18.4122 19.8849 17.7901 19.767 17.4791 19.3106C17.3743 19.1569 17.2548 19.0122 17.1213 18.8787C16.5587 18.3161 15.7956 18 15 18H8.99995C8.2043 18 7.44124 18.3161 6.87863 18.8787C6.74514 19.0122 6.62557 19.1569 6.52081 19.3106C6.20982 19.767 5.58772 19.8849 5.13132 19.5739C4.67492 19.2629 4.55705 18.6408 4.86805 18.1844C5.04271 17.9281 5.24204 17.6868 5.46442 17.4645Z" fill="currentColor"/>
<path fill-rule="evenodd" clip-rule="evenodd" d="M12 7C10.3431 7 9 8.34315 9 10C9 11.6569 10.3431 13 12 13C13.6569 13 15 11.6569 15 10C15 8.34315 13.6569 7 12 7ZM7 10C7 7.23858 9.23858 5 12 5C14.7614 5 17 7.23858 17 10C17 12.7614 14.7614 15 12 15C9.23858 15 7 12.7614 7 10Z" fill="currentColor"/>
</svg>
