<svg width="20" height="20" viewBox="0 0 20 20" fill="none" xmlns="http://www.w3.org/2000/svg">
    <path style="stroke:#66AA61 !important" d="M18.333 6.668v-5h-5M18.333 1.668l-5 5M18.333 14.101v2.5a1.667 1.667 0 0 1-1.816 1.667 16.49 16.49 0 0 1-7.192-2.558 16.25 16.25 0 0 1-5-5 16.492 16.492 0 0 1-2.558-7.225 1.666 1.666 0 0 1 1.658-1.817h2.5a1.667 1.667 0 0 1 1.667 1.433c.105.8.3 1.586.583 2.342A1.667 1.667 0 0 1 7.8 7.201L6.742 8.26a13.334 13.334 0 0 0 5 5L12.8 12.2a1.665 1.665 0 0 1 1.758-.375 10.7 10.7 0 0 0 2.342.584 1.666 1.666 0 0 1 1.433 1.691Z"
          stroke="#66AA61" stroke-width="2" stroke-linecap="round" stroke-linejoin="round"/>
</svg>