<svg width="324" height="335" viewBox="0 0 324 335" fill="none" xmlns="http://www.w3.org/2000/svg">
<rect opacity="0.6" x="162" y="3" width="203.647" height="203.647" rx="10" transform="rotate(45 162 3)" fill="#E0E1F9"/>
<g filter="url(#filter0_d_477_44570)">
<rect x="109.274" y="13" width="203.647" height="203.647" rx="20" transform="rotate(23.5218 109.274 13)" fill="white"/>
</g>
<path d="M133.045 120.409C122.647 120.409 112.673 124.534 105.319 131.878C97.9655 139.222 93.8345 149.183 93.8345 159.57C93.8345 169.957 97.9655 179.919 105.318 187.262C112.672 194.607 122.646 198.733 133.044 198.733C143.444 198.733 153.418 194.606 160.77 187.262C168.123 179.917 172.254 169.956 172.254 159.57C172.242 149.188 168.108 139.234 160.757 131.892C153.407 124.551 143.441 120.421 133.044 120.409L133.045 120.409ZM133.045 195.22C123.578 195.22 114.499 191.464 107.805 184.778C101.11 178.092 97.3486 169.024 97.3486 159.567C97.3486 150.112 101.109 141.044 107.805 134.358C114.499 127.672 123.578 123.915 133.045 123.915C142.514 123.915 151.593 127.672 158.287 134.358C164.981 141.044 168.742 150.112 168.742 159.567C168.732 169.021 164.968 178.083 158.276 184.767C151.584 191.451 142.509 195.21 133.045 195.22ZM137.763 161.799V161.8C138.4 160.47 138.441 158.932 137.876 157.57C137.312 156.209 136.194 155.15 134.803 154.66V138.952C134.803 137.981 134.014 137.195 133.043 137.195C132.071 137.195 131.283 137.981 131.283 138.952V154.66C129.934 155.139 128.841 156.149 128.26 157.456C127.679 158.764 127.661 160.251 128.21 161.572C128.758 162.893 129.826 163.929 131.163 164.441C132.5 164.953 133.989 164.894 135.28 164.277L141.562 170.551C141.883 170.916 142.341 171.132 142.827 171.149C143.314 171.164 143.784 170.978 144.129 170.635C144.472 170.292 144.658 169.821 144.643 169.335C144.628 168.85 144.411 168.393 144.046 168.072L137.763 161.799ZM131.332 159.569C131.334 158.626 132.099 157.861 133.043 157.859C133.736 157.86 134.36 158.277 134.625 158.918C134.889 159.557 134.742 160.294 134.251 160.782C133.76 161.272 133.022 161.418 132.383 161.152C131.743 160.885 131.325 160.261 131.326 159.569H131.332ZM100.856 157.812H105.015V161.327H100.856V157.812ZM131.29 187.564H134.809L134.808 191.723H131.289L131.29 187.564ZM165.24 157.817V161.332H161.078V157.817H165.24ZM134.803 131.574H131.284V127.421H134.803V131.575V131.574ZM213.041 101.638H212.141C211.698 100.119 211.09 98.6532 210.327 97.2669L210.965 96.6294H210.964C211.707 95.8868 212.124 94.8795 212.124 93.8304C212.124 92.7803 211.707 91.7741 210.964 91.0314L207.958 88.0292C207.215 87.2876 206.206 86.8718 205.155 86.8718C204.105 86.8718 203.096 87.2876 202.351 88.0292L201.713 88.6667L201.714 88.6657C200.326 87.9036 198.859 87.2958 197.339 86.8545V85.9535C197.336 84.9054 196.918 83.9012 196.176 83.1605C195.434 82.4199 194.429 82.002 193.379 82H189.128C188.078 82.002 187.073 82.4199 186.331 83.1605C185.589 83.9011 185.171 84.9053 185.168 85.9535V86.8545C183.644 87.2958 182.173 87.9026 180.782 88.6657L180.144 88.0282V88.0292C179.401 87.2876 178.392 86.8718 177.341 86.8718C176.29 86.8718 175.282 87.2876 174.537 88.0292L171.531 91.0314C170.79 91.7741 170.373 92.7813 170.373 93.8315C170.373 94.8806 170.79 95.8879 171.531 96.6315L172.17 97.2669C171.407 98.6532 170.799 100.119 170.356 101.638H169.456C168.407 101.641 167.401 102.058 166.659 102.8C165.917 103.54 165.499 104.544 165.497 105.593V109.839C165.499 110.887 165.917 111.891 166.659 112.632C167.401 113.374 168.407 113.791 169.456 113.794H170.356C170.798 115.313 171.407 116.777 172.17 118.164L171.531 118.801V118.8C170.79 119.544 170.373 120.551 170.373 121.601C170.373 122.65 170.79 123.658 171.531 124.401L174.537 127.404V127.403C175.282 128.144 176.29 128.56 177.341 128.56C178.392 128.56 179.401 128.144 180.144 127.403L180.782 126.765V126.766C182.17 127.528 183.637 128.136 185.158 128.577V129.476C185.161 130.524 185.578 131.529 186.321 132.269C187.062 133.011 188.068 133.428 189.117 133.431H193.369C194.418 133.428 195.424 133.011 196.166 132.269C196.908 131.529 197.325 130.524 197.328 129.476V128.577C198.848 128.136 200.316 127.528 201.704 126.766L202.342 127.404L202.341 127.403C203.086 128.144 204.094 128.56 205.145 128.56C206.196 128.56 207.205 128.144 207.948 127.403L210.954 124.4V124.401C211.697 123.658 212.113 122.65 212.113 121.601C212.113 120.551 211.697 119.544 210.954 118.8L210.316 118.163L210.317 118.164C211.08 116.778 211.687 115.313 212.13 113.794H213.041C214.09 113.791 215.095 113.374 215.837 112.632C216.58 111.891 216.997 110.887 217 109.839V105.593C216.997 104.545 216.58 103.54 215.837 102.8C215.096 102.058 214.09 101.641 213.041 101.638ZM213.493 109.839C213.49 110.087 213.289 110.287 213.041 110.29H210.771C209.948 110.292 209.236 110.864 209.057 111.665C208.599 113.738 207.778 115.714 206.635 117.503C206.192 118.197 206.29 119.105 206.872 119.688L208.475 121.286V121.287C208.65 121.464 208.65 121.748 208.475 121.926L205.469 124.928C205.291 125.1 205.009 125.1 204.83 124.928L203.229 123.331C202.645 122.75 201.736 122.652 201.041 123.094C199.25 124.236 197.272 125.056 195.198 125.513C194.394 125.692 193.821 126.403 193.819 127.225V129.486C193.816 129.734 193.616 129.935 193.368 129.938H189.115C188.868 129.935 188.667 129.734 188.664 129.486V127.226C188.662 126.404 188.09 125.693 187.286 125.515C185.21 125.058 183.232 124.238 181.441 123.095C180.746 122.654 179.838 122.753 179.255 123.334L177.654 124.933C177.475 125.106 177.193 125.106 177.015 124.933L174.009 121.931V121.932C173.836 121.753 173.836 121.471 174.009 121.292L175.61 119.694C176.193 119.111 176.292 118.203 175.849 117.509C174.704 115.72 173.884 113.744 173.427 111.672C173.248 110.869 172.536 110.298 171.713 110.297H169.45C169.202 110.294 169 110.093 168.997 109.845V105.599C169 105.349 169.202 105.149 169.45 105.147H171.714C172.537 105.145 173.25 104.573 173.428 103.77C173.887 101.699 174.706 99.7247 175.85 97.9369C176.292 97.2433 176.193 96.3362 175.612 95.7539L174.01 94.1541C173.836 93.9774 173.836 93.6934 174.01 93.5157L177.016 90.5135C177.194 90.3398 177.478 90.3398 177.655 90.5135L179.257 92.1132C179.84 92.6935 180.748 92.7926 181.442 92.3523C183.233 91.2092 185.212 90.3899 187.288 89.9322C188.092 89.7545 188.663 89.0435 188.665 88.2201V85.9533C188.668 85.7061 188.869 85.5059 189.118 85.5028H193.369C193.618 85.5059 193.818 85.7061 193.821 85.9533V88.216C193.822 89.0383 194.394 89.7493 195.198 89.9281C197.273 90.3858 199.252 91.204 201.044 92.3471C201.739 92.7884 202.647 92.6894 203.23 92.1091L204.83 90.5094C205.008 90.3357 205.292 90.3357 205.469 90.5094L208.475 93.5116C208.648 93.6893 208.648 93.9723 208.475 94.15L206.874 95.7488V95.7498C206.292 96.3321 206.193 97.2392 206.635 97.9328C207.778 99.7215 208.599 101.697 209.057 103.77C209.236 104.573 209.948 105.145 210.771 105.147H213.041C213.289 105.15 213.49 105.35 213.493 105.598L213.493 109.839ZM191.243 93.8988C187.572 93.8978 184.051 95.3545 181.455 97.9463C178.859 100.539 177.401 104.055 177.401 107.721C177.401 111.388 178.86 114.904 181.455 117.497C184.05 120.088 187.571 121.545 191.241 121.545C194.912 121.545 198.433 120.088 201.029 117.496C203.625 114.903 205.082 111.387 205.082 107.72C205.078 104.056 203.618 100.543 201.023 97.9515C198.43 95.3609 194.912 93.903 191.243 93.8988ZM191.243 118.035C188.503 118.035 185.877 116.949 183.94 115.014C182.002 113.08 180.914 110.457 180.914 107.721C180.914 104.985 182.001 102.362 183.939 100.427C185.875 98.4925 188.502 97.4055 191.24 97.4055C193.98 97.4055 196.607 98.4924 198.543 100.426C200.481 102.361 201.569 104.984 201.569 107.72C201.566 110.455 200.478 113.076 198.542 115.01C196.605 116.944 193.981 118.032 191.243 118.035L191.243 118.035ZM212.196 169.425H210.446C209.795 167.043 208.844 164.753 207.615 162.61L208.853 161.374C209.752 160.473 210.257 159.253 210.257 157.981C210.257 156.708 209.752 155.488 208.853 154.587L204.703 150.443C203.801 149.545 202.579 149.041 201.305 149.041C200.032 149.041 198.811 149.545 197.909 150.443L196.671 151.68C194.525 150.453 192.231 149.504 189.845 148.855V147.106C189.843 145.836 189.337 144.617 188.437 143.719C187.536 142.82 186.317 142.314 185.045 142.311H179.179C178.751 142.313 178.324 142.374 177.911 142.49C174.417 133.328 168.195 125.455 160.085 119.932C151.974 114.409 142.363 111.5 132.547 111.598C122.73 111.697 113.18 114.797 105.182 120.481C97.184 126.166 91.1219 134.161 87.812 143.392C84.5021 152.623 84.1044 162.644 86.6706 172.106C89.2378 181.57 94.6454 190.02 102.168 196.32C109.69 202.62 118.964 206.467 128.742 207.342C138.519 208.217 148.331 206.079 156.853 201.215L159.521 203.866C160.423 204.764 161.644 205.268 162.919 205.268C164.192 205.268 165.413 204.764 166.315 203.866L167.553 202.629V202.628C169.699 203.856 171.992 204.805 174.377 205.454V207.202C174.379 208.475 174.885 209.694 175.786 210.593C176.688 211.493 177.909 211.999 179.182 212H185.047C186.321 211.998 187.541 211.492 188.443 210.593C189.343 209.693 189.849 208.474 189.851 207.202V205.454C192.237 204.805 194.531 203.856 196.676 202.628L197.914 203.865V203.866C198.816 204.764 200.038 205.268 201.312 205.268C202.585 205.268 203.807 204.764 204.709 203.866L208.856 199.719C209.755 198.817 210.259 197.597 210.259 196.325C210.259 195.053 209.755 193.833 208.856 192.932L207.617 191.696H207.616C208.845 189.554 209.796 187.265 210.445 184.883H212.194C213.469 184.882 214.69 184.375 215.59 183.476C216.491 182.576 216.998 181.356 217 180.083V174.226C217 172.953 216.493 171.732 215.592 170.832C214.692 169.932 213.47 169.426 212.196 169.424L212.196 169.425ZM182.111 162.25C187.071 162.247 191.708 164.707 194.484 168.811C197.261 172.916 197.814 178.131 195.96 182.726C194.107 187.321 190.088 190.695 185.238 191.731C180.388 192.767 175.339 191.328 171.767 187.893C177.262 180.434 180.465 171.539 180.982 162.294C181.358 162.265 181.734 162.25 182.111 162.25ZM88.5531 159.571C88.5531 147.783 93.2416 136.478 101.588 128.144C109.933 119.809 121.252 115.127 133.055 115.128C144.857 115.128 156.176 119.811 164.523 128.145C172.868 136.481 177.555 147.786 177.555 159.574C177.555 171.363 172.867 182.667 164.522 191.003C156.176 199.338 144.857 204.021 133.054 204.021C121.256 204.007 109.944 199.32 101.602 190.988C93.2594 182.655 88.5667 171.358 88.5544 159.574L88.5531 159.571ZM213.481 180.085C213.481 180.798 212.903 181.375 212.189 181.375H209.071C208.248 181.376 207.535 181.948 207.356 182.75C206.707 185.689 205.545 188.49 203.923 191.025C203.481 191.72 203.581 192.627 204.162 193.209L206.373 195.418C206.871 195.923 206.871 196.735 206.373 197.242L202.223 201.387C201.981 201.629 201.652 201.765 201.31 201.765C200.967 201.765 200.639 201.629 200.396 201.387L198.185 199.178C197.602 198.598 196.694 198.499 195.999 198.939C193.461 200.56 190.656 201.721 187.715 202.368C186.911 202.547 186.338 203.259 186.338 204.081V207.203C186.337 207.916 185.759 208.494 185.046 208.494H179.18C178.468 208.492 177.89 207.914 177.889 207.202V204.08C177.887 203.257 177.315 202.546 176.511 202.368C173.569 201.721 170.765 200.56 168.227 198.939C167.533 198.499 166.624 198.598 166.041 199.178L163.83 201.387C163.325 201.89 162.508 201.89 162.003 201.387L159.914 199.3C163.509 196.866 166.76 193.96 169.579 190.66C174.049 194.799 180.279 196.465 186.221 195.108C192.164 193.753 197.051 189.55 199.277 183.883C201.503 178.215 200.781 171.815 197.346 166.785C193.912 161.755 188.211 158.746 182.115 158.746C181.762 158.746 181.408 158.759 181.055 158.779H181.054C180.986 154.393 180.312 150.036 179.051 145.833C179.095 145.833 179.136 145.822 179.18 145.822H185.045L185.046 145.821C185.758 145.822 186.336 146.398 186.338 147.11V150.232C186.338 151.055 186.911 151.767 187.715 151.946C190.656 152.594 193.461 153.754 195.999 155.374C196.694 155.816 197.602 155.717 198.185 155.135L200.396 152.927C200.903 152.427 201.717 152.427 202.223 152.927L206.373 157.071C206.871 157.578 206.871 158.39 206.373 158.897L204.161 161.102C203.58 161.685 203.481 162.592 203.923 163.285C205.545 165.821 206.707 168.622 207.356 171.56C207.535 172.363 208.247 172.934 209.071 172.935H212.197C212.909 172.937 213.486 173.513 213.487 174.225L213.481 180.085Z" fill="#0862EE"/>
<circle cx="266" cy="46" r="6" fill="#0862EE"/>
<circle cx="63" cy="279" r="8" fill="#0862EE"/>
<rect x="17.8994" width="14" height="14" transform="rotate(45 17.8994 0)" fill="#CAD2FF"/>
<defs>
<filter id="filter0_d_477_44570" x="0.314453" y="11.3149" width="323.37" height="323.371" filterUnits="userSpaceOnUse" color-interpolation-filters="sRGB">
<feFlood flood-opacity="0" result="BackgroundImageFix"/>
<feColorMatrix in="SourceAlpha" type="matrix" values="0 0 0 0 0 0 0 0 0 0 0 0 0 0 0 0 0 0 127 0" result="hardAlpha"/>
<feMorphology radius="10" operator="erode" in="SourceAlpha" result="effect1_dropShadow_477_44570"/>
<feOffset dy="26"/>
<feGaussianBlur stdDeviation="22"/>
<feComposite in2="hardAlpha" operator="out"/>
<feColorMatrix type="matrix" values="0 0 0 0 0.222247 0 0 0 0 0.31766 0 0 0 0 0.858333 0 0 0 0.27 0"/>
<feBlend mode="normal" in2="BackgroundImageFix" result="effect1_dropShadow_477_44570"/>
<feBlend mode="normal" in="SourceGraphic" in2="effect1_dropShadow_477_44570" result="shape"/>
</filter>
</defs>
</svg>
