<svg width="171" height="171" viewBox="0 0 171 171" fill="none" xmlns="http://www.w3.org/2000/svg">
<rect x="85.7412" y="18" width="76" height="76" rx="10" transform="rotate(45 85.7412 18)" fill="#F9EACD"/>
<g filter="url(#filter0_d_477_46449)">
<rect x="66.29" y="21.6436" width="76" height="76" rx="10" transform="rotate(23.7807 66.29 21.6436)" fill="#FBB500"/>
</g>
<path d="M105.461 78.0005L89.4608 50.0004C89.112 49.3849 88.606 48.8728 87.9947 48.5166C87.3833 48.1603 86.6884 47.9727 85.9808 47.9727C85.2733 47.9727 84.5783 48.1603 83.967 48.5166C83.3556 48.8728 82.8497 49.3849 82.5008 50.0004L66.5008 78.0005C66.1482 78.6112 65.9633 79.3043 65.9649 80.0095C65.9664 80.7147 66.1544 81.4069 66.5097 82.0161C66.8651 82.6252 67.3751 83.1296 67.9882 83.4781C68.6013 83.8266 69.2957 84.0068 70.0008 84.0005H102.001C102.703 83.9997 103.392 83.8144 103.999 83.463C104.607 83.1116 105.111 82.6066 105.462 81.9987C105.812 81.3907 105.997 80.7012 105.997 79.9994C105.997 79.2976 105.812 78.6082 105.461 78.0005Z" stroke="white" stroke-width="3" stroke-linecap="round" stroke-linejoin="round"/>
<path d="M86.001 60V68" stroke="white" stroke-width="3" stroke-linecap="round" stroke-linejoin="round"/>
<path d="M86.001 76H86.0214" stroke="white" stroke-width="3" stroke-linecap="round" stroke-linejoin="round"/>
<circle cx="150.5" cy="42.5" r="2.5" fill="#FB8700"/>
<circle cx="49.5" cy="126.5" r="4.5" fill="#FB7800"/>
<rect x="31.8867" y="9" width="8.32576" height="8.32576" transform="rotate(45 31.8867 9)" fill="#F0DEBB"/>
<defs>
<filter id="filter0_d_477_46449" x="0.824707" y="0.824219" width="169.832" height="169.832" filterUnits="userSpaceOnUse" color-interpolation-filters="sRGB">
<feFlood flood-opacity="0" result="BackgroundImageFix"/>
<feColorMatrix in="SourceAlpha" type="matrix" values="0 0 0 0 0 0 0 0 0 0 0 0 0 0 0 0 0 0 127 0" result="hardAlpha"/>
<feMorphology radius="6" operator="erode" in="SourceAlpha" result="effect1_dropShadow_477_46449"/>
<feOffset dy="14"/>
<feGaussianBlur stdDeviation="22"/>
<feComposite in2="hardAlpha" operator="out"/>
<feColorMatrix type="matrix" values="0 0 0 0 0.858333 0 0 0 0 0.527569 0 0 0 0 0.222247 0 0 0 0.4 0"/>
<feBlend mode="normal" in2="BackgroundImageFix" result="effect1_dropShadow_477_46449"/>
<feBlend mode="normal" in="SourceGraphic" in2="effect1_dropShadow_477_46449" result="shape"/>
</filter>
</defs>
</svg>
