<svg width="171" height="171" viewBox="0 0 171 171" fill="none" xmlns="http://www.w3.org/2000/svg">
<rect x="85.7412" y="18" width="76" height="76" rx="10" transform="rotate(45 85.7412 18)" fill="#F9CDCD"/>
<g filter="url(#filter0_d_477_48214)">
<rect x="66.29" y="21.6436" width="76" height="76" rx="10" transform="rotate(23.7807 66.29 21.6436)" fill="#FC2829"/>
</g>
<path d="M86 92C97.0457 92 106 83.0457 106 72C106 60.9543 97.0457 52 86 52C74.9543 52 66 60.9543 66 72C66 83.0457 74.9543 92 86 92Z" stroke="white" stroke-width="3" stroke-linecap="round" stroke-linejoin="round"/>
<path d="M71.8599 57.8604L100.14 86.1404" stroke="white" stroke-width="3" stroke-linecap="round" stroke-linejoin="round"/>
<circle cx="150.5" cy="42.5" r="2.5" fill="#D53536"/>
<circle cx="49.5" cy="126.5" r="4.5" fill="#D53536"/>
<rect x="31.8867" y="9" width="8.32576" height="8.32576" transform="rotate(45 31.8867 9)" fill="#F0BEBB"/>
<defs>
<filter id="filter0_d_477_48214" x="0.824707" y="0.824219" width="169.832" height="169.832" filterUnits="userSpaceOnUse" color-interpolation-filters="sRGB">
<feFlood flood-opacity="0" result="BackgroundImageFix"/>
<feColorMatrix in="SourceAlpha" type="matrix" values="0 0 0 0 0 0 0 0 0 0 0 0 0 0 0 0 0 0 127 0" result="hardAlpha"/>
<feMorphology radius="6" operator="erode" in="SourceAlpha" result="effect1_dropShadow_477_48214"/>
<feOffset dy="14"/>
<feGaussianBlur stdDeviation="22"/>
<feComposite in2="hardAlpha" operator="out"/>
<feColorMatrix type="matrix" values="0 0 0 0 0.858333 0 0 0 0 0.260413 0 0 0 0 0.222247 0 0 0 0.4 0"/>
<feBlend mode="normal" in2="BackgroundImageFix" result="effect1_dropShadow_477_48214"/>
<feBlend mode="normal" in="SourceGraphic" in2="effect1_dropShadow_477_48214" result="shape"/>
</filter>
</defs>
</svg>
