<svg width="18" height="22" viewBox="0 0 18 22" fill="none" xmlns="http://www.w3.org/2000/svg">
<path fill-rule="evenodd" clip-rule="evenodd" d="M6 0C4.89543 0 4 0.89543 4 2H3C2.20435 2 1.44129 2.31607 0.87868 2.87868C0.31607 3.44129 0 4.20435 0 5V19C0 19.7957 0.31607 20.5587 0.87868 21.1213C1.44129 21.6839 2.20435 22 3 22H15C15.7957 22 16.5587 21.6839 17.1213 21.1213C17.6839 20.5587 18 19.7957 18 19V5C18 4.20435 17.6839 3.44129 17.1213 2.87868C16.5587 2.31607 15.7956 2 15 2H14C14 0.89543 13.1046 0 12 0H6ZM14 4C14 5.10457 13.1046 6 12 6H6C4.89543 6 4 5.10457 4 4H3C2.73478 4 2.48043 4.10536 2.29289 4.29289C2.10536 4.48043 2 4.73478 2 5V19C2 19.2652 2.10536 19.5196 2.29289 19.7071C2.48043 19.8946 2.73478 20 3 20H15C15.2652 20 15.5196 19.8946 15.7071 19.7071C15.8946 19.5196 16 19.2652 16 19V5C16 4.73478 15.8946 4.48043 15.7071 4.29289C15.5196 4.10536 15.2652 4 15 4H14ZM6 3V4H12V3V2H6V3ZM8 10C8 9.44771 8.44771 9 9 9H13C13.5523 9 14 9.44771 14 10C14 10.5523 13.5523 11 13 11H9C8.44771 11 8 10.5523 8 10ZM9 14C8.44771 14 8 14.4477 8 15C8 15.5523 8.44771 16 9 16H13C13.5523 16 14 15.5523 14 15C14 14.4477 13.5523 14 13 14H9ZM4 10C4 9.44771 4.44772 9 5 9H5.01C5.56228 9 6.01 9.44771 6.01 10C6.01 10.5523 5.56228 11 5.01 11H5C4.44772 11 4 10.5523 4 10ZM5 14C4.44772 14 4 14.4477 4 15C4 15.5523 4.44772 16 5 16H5.01C5.56228 16 6.01 15.5523 6.01 15C6.01 14.4477 5.56228 14 5.01 14H5Z" fill="white"/>
</svg>
