<svg xmlns="http://www.w3.org/2000/svg" width="21" height="20" fill="none" viewBox="0 0 21 20">
    <path fill="currentColor"
          d="M2.7 17.585a.75.75 0 0 0 0 1.5v-1.5Zm15 1.5a.75.75 0 0 0 0-1.5v1.5Zm-15 0h15v-1.5h-15v1.5Zm2.584-9.917v5h1.5v-5h-1.5Zm-1.834 5v-5h-1.5v5h1.5Zm.917.917c-.414 0-.65-.002-.815-.024-.143-.02-.118-.041-.077 0l-1.061 1.06c.285.285.628.385.939.426.288.04.642.038 1.014.038v-1.5Zm-2.417-.917c0 .372-.001.726.037 1.014.042.31.142.654.427.939l1.06-1.06c.041.04.02.065 0-.079-.022-.165-.024-.4-.024-.814h-1.5Zm3.334 0c0 .414-.002.65-.024.814-.02.144-.041.119 0 .078l1.06 1.06c.284-.284.385-.628.426-.938.04-.288.038-.642.038-1.014h-1.5Zm-.917 2.417c.372 0 .726.001 1.014-.038.31-.041.654-.142.939-.426l-1.06-1.06c.04-.041.065-.02-.079 0-.165.022-.4.024-.814.024v1.5Zm0-8.334c.414 0 .649.002.814.024.144.02.119.041.078 0l1.06-1.06c-.284-.285-.628-.385-.938-.426-.288-.04-.643-.038-1.014-.038v1.5Zm2.417.917c0-.372.001-.726-.038-1.014-.041-.31-.142-.654-.426-.939l-1.06 1.06c-.041-.04-.02-.065 0 .079.022.165.024.4.024.814h1.5ZM4.367 6.751c-.372 0-.726-.001-1.014.037-.31.042-.654.142-.94.427l1.062 1.06c-.04.041-.066.02.077 0 .166-.022.4-.024.815-.024v-1.5ZM3.45 9.168c0-.414.002-.65.024-.814.02-.144.041-.119 0-.078l-1.06-1.061c-.285.285-.385.629-.427.939-.038.288-.037.642-.037 1.014h1.5Zm7.667-3.333v8.333h1.5V5.835h-1.5Zm-1.833 8.333V5.835h-1.5v8.333h1.5Zm.916.917c-.414 0-.649-.002-.814-.024-.144-.02-.119-.041-.078 0l-1.06 1.06c.284.285.628.385.938.426.288.04.643.038 1.014.038v-1.5Zm-2.416-.917c0 .372-.002.726.037 1.014.041.31.142.654.426.939l1.06-1.06c.041.04.02.065 0-.079-.022-.165-.023-.4-.023-.814h-1.5Zm3.333 0c0 .414-.002.65-.024.814-.02.144-.041.119 0 .078l1.06 1.06c.285-.284.385-.628.427-.938.038-.288.037-.642.037-1.014h-1.5Zm-.917 2.417c.372 0 .726.001 1.014-.038.31-.041.654-.142.94-.426l-1.062-1.06c.041-.041.066-.02-.077 0-.166.022-.4.024-.815.024v1.5Zm0-11.667c.414 0 .65.002.815.024.143.02.118.04.077 0l1.061-1.06c-.285-.285-.628-.385-.939-.427-.288-.039-.642-.037-1.014-.037v1.5Zm2.417.917c0-.372.001-.726-.037-1.015-.042-.31-.142-.654-.427-.938l-1.06 1.06c-.041-.04-.02-.066 0 .078.022.166.024.4.024.815h1.5ZM10.2 3.418c-.371 0-.726-.002-1.014.037-.31.042-.654.142-.939.427l1.06 1.06c-.04.04-.065.02.079 0 .165-.022.4-.024.814-.024v-1.5Zm-.916 2.417c0-.414.001-.65.023-.815.02-.144.041-.118 0-.078l-1.06-1.06c-.284.284-.385.628-.426.938-.04.289-.037.643-.037 1.015h1.5Zm7.666-2.5v10.833h1.5V3.335h-1.5Zm-1.833 10.833V3.335h-1.5v10.833h1.5Zm.916.917c-.414 0-.649-.002-.814-.024-.144-.02-.118-.041-.078 0l-1.06 1.06c.284.285.628.385.938.426.289.04.643.038 1.014.038v-1.5Zm-2.416-.917c0 .372-.002.726.037 1.014.042.31.142.654.427.939l1.06-1.06c.04.04.019.065 0-.079-.023-.165-.024-.4-.024-.814h-1.5Zm3.333 0c0 .414-.001.65-.024.814-.019.144-.04.119 0 .078l1.06 1.06c.285-.284.385-.628.427-.938.039-.288.037-.642.037-1.014h-1.5Zm-.916 2.417c.371 0 .725.001 1.014-.038.31-.041.654-.142.938-.426l-1.06-1.06c.04-.041.066-.02-.078 0-.165.022-.4.024-.814.024v1.5Zm0-14.167c.414 0 .649.002.814.024.144.02.118.04.078 0l1.06-1.06c-.284-.285-.628-.385-.938-.427-.289-.039-.643-.037-1.014-.037v1.5Zm2.416.917c0-.372.002-.726-.037-1.015-.042-.31-.142-.654-.427-.938l-1.06 1.06c-.04-.04-.019-.066 0 .078.023.166.024.4.024.815h1.5ZM16.034.918c-.372 0-.726-.002-1.015.037-.31.042-.654.142-.938.427l1.06 1.06c-.04.04-.066.02.078 0 .165-.022.4-.024.815-.024v-1.5Zm-.917 2.417c0-.414.001-.65.024-.815.019-.144.04-.118 0-.078l-1.06-1.06c-.285.284-.385.628-.427.938-.039.289-.037.643-.037 1.015h1.5Z"/>
</svg>