<svg xmlns="http://www.w3.org/2000/svg" width="21" height="20" fill="none" viewBox="0 0 21 20">
    <path fill="currentColor"
          d="M14.002 7.192c-.097-.092-.146-.228-.146-.41.008-.084.022-.164.045-.24a.48.48 0 0 1 .123-.216.942.942 0 0 1 .527-.262c.187-.023.39-.042.606-.057.172-.008.325-.008.46 0h.46a34.563 34.563 0 0 1 1.739.045c.112.008.224.023.336.046a.828.828 0 0 1 .303.125c.09.053.16.125.213.217.06.083.094.19.101.319.008.152-.015.296-.067.433-.045.136-.109.27-.19.398-.083.122-.177.24-.281.353-.098.107-.191.206-.28.297-.165.174-.352.36-.562.558-.209.197-.396.383-.56.558.291.038.572.106.84.205.277.099.52.236.73.41.21.175.374.395.493.661.128.258.191.57.191.934 0 .365-.07.703-.213 1.014a2.487 2.487 0 0 1-.572.82 2.7 2.7 0 0 1-.875.536c-.336.129-.707.194-1.11.194-.172 0-.36-.016-.561-.046a4.058 4.058 0 0 1-.584-.137 3.624 3.624 0 0 1-.56-.228 1.898 1.898 0 0 1-.45-.353 1.461 1.461 0 0 1-.235-.319 1.267 1.267 0 0 1-.112-.387.655.655 0 0 1 .079-.365.538.538 0 0 1 .314-.25.824.824 0 0 1 .628.034c.097.038.19.083.28.137.098.053.191.106.28.16.277.174.565.276.864.307.307.03.606-.042.898-.217a.927.927 0 0 0 .359-.364.832.832 0 0 0 .09-.456.856.856 0 0 0-.146-.433 1.01 1.01 0 0 0-.348-.342c-.142-.083-.3-.14-.471-.17l-.516-.092a3.368 3.368 0 0 1-.494-.125.916.916 0 0 1-.403-.274.484.484 0 0 1-.124-.467 1.44 1.44 0 0 1 .247-.49 4.72 4.72 0 0 1 .415-.455 6.05 6.05 0 0 0 .37-.365c.052-.053.112-.117.18-.193.074-.076.142-.152.201-.228.068-.076.124-.148.169-.217a.65.65 0 0 0 .1-.205c.023-.06.012-.102-.033-.125a.293.293 0 0 0-.168-.046 1.105 1.105 0 0 0-.225 0H15.427c-.105 0-.221.004-.348.012-.128 0-.258-.004-.393-.012a3.346 3.346 0 0 1-.381-.068.687.687 0 0 1-.303-.16ZM8.573 8.604c-.112.175-.247.281-.404.32a.667.667 0 0 1-.437-.035.845.845 0 0 1-.36-.296.782.782 0 0 1-.111-.49c.007-.122.037-.255.09-.399.052-.144.115-.28.19-.41a3.64 3.64 0 0 1 .258-.376c.097-.121.195-.224.292-.307.18-.145.381-.27.606-.376a3.47 3.47 0 0 1 .717-.24c.255-.053.505-.076.752-.068.254.008.49.046.707.114.598.19 1.062.49 1.39.9.33.41.494.942.494 1.595 0 .311-.03.592-.09.843a2.21 2.21 0 0 1-.291.706c-.135.228-.318.46-.55.695-.224.236-.505.494-.841.775-.112.099-.228.197-.348.296l-.359.296c-.037.03-.108.076-.213.137-.105.06-.198.121-.28.182-.083.061-.131.118-.146.171-.015.053.045.084.18.091.164.015.295.02.392.012a5.3 5.3 0 0 1 .392-.012c.195 0 .386-.003.572-.011.188-.008.374-.004.561.011.075.008.157.012.247.012.09-.008.18-.008.27 0 .09 0 .175.011.257.034.083.015.154.05.213.102.06.054.105.126.135.217.03.091.045.19.045.296a.993.993 0 0 1-.023.296.457.457 0 0 1-.112.217.454.454 0 0 1-.359.17 7.578 7.578 0 0 0-.403-.01H7.979c-.075 0-.157.003-.247.01a.539.539 0 0 1-.224-.022c-.135-.038-.202-.11-.202-.217.007-.106.01-.216.01-.33 0-.19.046-.365.135-.524.09-.167.202-.32.337-.456.142-.144.292-.277.449-.399.157-.121.302-.239.437-.353.195-.174.404-.35.628-.524.225-.174.438-.35.64-.524.261-.22.482-.421.661-.604.187-.182.337-.353.45-.512.111-.16.194-.315.246-.467.052-.16.078-.327.078-.502 0-.387-.116-.683-.347-.888-.232-.213-.527-.32-.886-.32-.262 0-.509.058-.74.172a1.485 1.485 0 0 0-.562.5c-.045.084-.09.172-.134.263a1.502 1.502 0 0 1-.135.24ZM4.522 5.927c.053-.015.101-.027.146-.034a.875.875 0 0 1 .135-.034.692.692 0 0 1 .19-.023.718.718 0 0 1 .225.011c.075.008.142.03.202.069a.28.28 0 0 1 .145.148c.03.076.05.167.057.273.014.099.022.201.022.308 0 .106-.004.212-.011.319V13.32c.007.083.007.17 0 .262a.796.796 0 0 1-.068.262.515.515 0 0 1-.168.193c-.104.084-.247.126-.426.126a1.176 1.176 0 0 1-.449-.057.348.348 0 0 1-.247-.262 2.259 2.259 0 0 1-.033-.388 56.38 56.38 0 0 1-.079-2.939c.008-.964.012-1.956.012-2.973-.015.038-.068.072-.157.102-.083.03-.18.057-.292.08a5.2 5.2 0 0 1-.303.057 1.61 1.61 0 0 1-.19.023 1.149 1.149 0 0 1-.54-.057c-.156-.069-.246-.22-.268-.456-.03-.243.022-.433.157-.57.142-.136.321-.239.538-.307.24-.084.471-.167.696-.25a7.74 7.74 0 0 1 .706-.24Z"/>
</svg>